<svg xmlns="http://www.w3.org/2000/svg" width="400.287" height="704.036" viewBox="0 0 400.287 704.036">
  <g id="flower_1_" data-name="flower (1)" transform="translate(-110.451 0.002)" opacity="0.5">
    <g id="Layer_2_38_" transform="translate(110.451 -0.002)">
      <g id="Layer_3_38_">
        <path id="Path_1" data-name="Path 1" d="M509.613,427.053c-11.385-16.356-90.7,5.478-108.893,9.152-53.646,15.471-90.081,38.858-106.312,86.107a12.811,12.811,0,0,0-6.334,11.748c-5.764,3.167-11.449,6.333-17.038,9.738A537.519,537.519,0,0,0,292.3,480.034a5.114,5.114,0,0,0,1.805-6.761c1.473-5.764,2.739-11.575,4.054-17.418,14.251-15.075,28.312-30.418,44.97-42.99,61.263,17.085,122.763-32.651,150.189-87.264,6.112-15.027,22.754-45.271,14.251-60.076-19.16-14.251-86.63,17.861-101.07,27.314-40.029,25.049-64.3,64.478-69.132,109.8A388.89,388.89,0,0,0,302.974,433.4c7.7-37.7,13.459-75.83,22.169-113.343,9.041-13.126,16.135-28.344,27.8-39.443,66.2,27.2,141.068-53.615,154.417-115.7,2.36-8.677-6.159-16.8-14.757-14.917-61.248,11.654-104.823,36.814-129.493,74.785a116.767,116.767,0,0,0-14.98,33.394,12.841,12.841,0,0,0-3.546,14.552c-3.769,4.022-7.378,8.2-10.752,12.572a603.962,603.962,0,0,1,33.885-92.489c58.587-19.1,102.132-74.073,109.258-135.1C477.139,42.751,484.47,1.487,463.648,0,452.326,2.2,443.6,12.665,433.182,17.622c-19.16,11.971-38.969,24.354-53.837,43.48-24.891,33.015-40.282,87.9-22.358,127.625A687.765,687.765,0,0,0,313.6,317.7a410.291,410.291,0,0,1-10.735-40.267c33.521-46.189,50.669-111.965,32-168.651C329.12,95.114,320.332,62.369,303.959,60.6c-13.68-.9-19.112,31.02-27.63,41.866-34.835,53.837-37.385,130.333,14.679,174.557a441.61,441.61,0,0,0,17.8,62.83c-7.616,38-13.476,76.4-22.169,114.2q-3.166-8.485-6.333-16.99c29.467-59.743,15.439-135.811-30.2-183.979-11.4-10.815-55.2-55.673-64.193-25.953-17.355,100.137-16.879,162.4,83.273,213.463q6.239,16.691,12.667,33.252a549.771,549.771,0,0,1-28.344,81.325,5.574,5.574,0,0,0-2.707,6.112c-1.584,3.611-3.31,7.22-5.035,10.8q-3.277-8.9-6.824-17.719c11.084-14.536.824-40.884-.206-57.763-9.706-50.068-18.115-88.418-67.644-120.5-15.724-8.74-62.752-24.891-60.567,5.51,25.873,65.27,38,160.639,116.984,175.413q5.907,14.582,11.084,29.484C216.267,625.23,195.3,670.341,155.368,693.65c-6.65,3.4-.175,13.063,6.413,9.675,29.119-15.359,46.584-44.763,64.208-71.413,5.969-2.469,11.337-6.333,17.07-9.121,32.334,43.83,125.915,21.661,162.191-5.986,11.607-9.675,41.755-29.372,36.625-45.713-5.383-13.966-65.474-11.544-85.268-13.284-37.322-1.125-88.166,7.616-109.257,45a12.146,12.146,0,0,0-6.841,7.918c-.855.379-1.694.712-2.533,1.108a519.135,519.135,0,0,0,24.908-48.96,336.861,336.861,0,0,1,31.669-19c61.975,23.625,138.708,2.265,180.052-49.2,8.866-12.866,42.688-55.129,35.009-67.621ZM498.276,270.641a3.008,3.008,0,0,1,2.69,3.3c-.008.073-.018.147-.03.219-12.795,68.262-73.8,141.194-148.842,131.631,5.843-5.337,119.438-86.012,75.5-77.715C403.95,353,375.766,372.71,348.753,393.707,358.126,321.169,431.043,278.78,498.276,270.641Zm-3.31-111.316a2.834,2.834,0,0,1,3.072,3.4c-12.018,55.245-76.527,129.24-138.186,110.84,20.679-20,45.92-35.722,70.3-50.766,6.333-3.927,0-13.617-6.333-9.69-22.864,14.124-46.3,28.961-66.378,47.06,16.927-60.66,79.852-90.888,137.52-100.849ZM360.105,136.271C363.493,72.933,413.562,38.1,463.646,9.5c8,5.035,4.338,37.322,3.784,47.107-6.192,54.47-43.465,103.319-94.135,124.2a647.748,647.748,0,0,1,38-67.787c4.037-6.334-6.413-11.369-10.435-5.13a630.492,630.492,0,0,0-39.111,70.558,151.924,151.924,0,0,1-1.647-42.181ZM303.973,70.1c46.474,56.576,31.051,136.523-3.262,195.919-6.333-36.957-6-74.658,7.347-110.476,2.6-6.936-7.806-12.144-10.435-5.13-13.427,36.039-14.789,73.63-9.359,110.666C233.653,197.392,268.789,131.141,303.973,70.1ZM188.62,278.986c2.107-6.746,3.247-56.813,10.831-52.506a159.93,159.93,0,0,1,43.7,33.062c41.169,43.227,54.185,109.637,32.6,165.278q-19-51.333-36.165-103.272c-2.343-7.109-13.4-3.483-11.084,3.626q16.8,50.859,35.326,101.1C203.758,396.524,177.6,345,188.62,278.986ZM431.059,573.2c10.118,4.338-26.222,32.318-31.241,35.881-34.345,25.525-116.177,45.524-148.115,9.675,28.835-11.638,60.376-12.936,91.063-14.362,7.49-.348,6.824-11.955-.649-11.607-28.344,1.315-57.1,2.8-84.318,11.432C297.781,552.144,374.135,568.1,431.059,573.2ZM122.227,375.274c83.732-7.126,110.619,100.485,111.727,167.274-2.265-7.141-61.928-133.9-62.15-90.43a582.634,582.634,0,0,1,51.065,93.66c-55.831-14.932-74.089-76.544-88.309-125.9-2.138-6.983-4.37-13.95-6.856-20.822C127.088,393.706,114.625,376.985,122.227,375.274Zm283.91,110.983c-34.836,11.845-69.909,23.926-103,40.014,26.269-78.712,124.189-90,195.6-95.957a2.946,2.946,0,0,1,2.771,4.2c-34.6,77.113-109.78,128.258-195.27,103.224,33.173-16.389,68.483-28.5,103.508-40.425,7.077-2.36,3.468-13.412-3.611-11v-.048Z" transform="translate(-110.451 0.002)" fill="#f9d5c9"/>
      </g>
    </g>
  </g>
</svg>
