<svg xmlns="http://www.w3.org/2000/svg" width="475.679" height="736.386" viewBox="0 0 475.679 736.386">
  <g id="flower_2_" data-name="flower (2)" transform="matrix(-1, 0, 0, -1, 566.307, 736.386)" opacity="0.5">
    <g id="Layer_2_33_" transform="translate(90.629 0)">
      <g id="Layer_3_33_">
        <path id="Path_3" data-name="Path 3" d="M94.014,373.322c17.508-26.819,75.038-24.52,88.258,5.5a110.741,110.741,0,0,0,58.3-21.465,278.876,278.876,0,0,1-60.355-43.85C144.794,329.718,86.394,276,112.458,239.6c34.078-36.673,102.809,20.661,79.423,62.755a261.956,261.956,0,0,0,111.2,62.919c-6.57-22.566-12.005-45.329-16.275-67.813C259.495,279.988,240.2,250.8,226.517,221.7c-29.152,2.3-49.155-36.46-48.071-62.622,3.564-51.175,45.722-45.362,64.33-7.538-4.68-24.767,7.423-55.578,36.278-51.175,31.3,14.239,43.16,71.229,11.857,94.057.558,12.366,1.445,24.947,2.694,37.609A269.528,269.528,0,0,0,316.057,90.939c-42.077-9.216-43-85.043.131-90.939,13.747.657,16.144,10.987,22.336,16.949,16.423,20.07,14.371,56.2-6.57,71.557,5.255,56.776-2.415,121.961-35.375,169.162a722.413,722.413,0,0,0,44.343,168.718,241.6,241.6,0,0,0,21.351-100.577c-37.215-16.111-27.788-98.13,12.959-99.986,42.7.213,42.7,89.524,3.515,101.234A281.177,281.177,0,0,1,371.52,385.8a126.2,126.2,0,0,0,75.547-30.1c-19.527-42.012,54-105.931,78.618-54.132C535.932,334.414,492.97,382.321,458.35,367a142.7,142.7,0,0,1-91.313,35c-5.37,14.239-8.819,31.2-18.64,42.7A734.154,734.154,0,0,0,450.431,615.666a345.856,345.856,0,0,0,6.258-53.278c-23.107-17.672-40.336-41.273-51.865-68.042-27.64-3.285-41.19-45.855-36.132-69.29,15.717-45.822,65.694-11.135,65.694,26.2,5.4-27.065,42.7-29.037,51.865-2.464,7.473,19.4,9.165,56.661-14.682,67.747a352.719,352.719,0,0,1,1.379,38.415,233.9,233.9,0,0,0,29.463-38.924c-28.495-29.069,7.456-82.774,40.139-85.763,49.007,6.767,12.859,90.329-24.634,91-12.844,20.218-26.737,41.782-46.149,56.251a371.45,371.45,0,0,1-8.343,54.2,709.132,709.132,0,0,0,94.056,92.12,7.356,7.356,0,0,1,2.446,8.343c-11.2,31.862-140.813-127-150.864-145.052-19.954,1.346-56.594-22.992-73.741-33.421-33.914,5.847-70.374-3.383-100.772-18.591-35.129,24.882-106.357-35.573-64.625-68.075,28.134-16.6,79.768,22.992,73.756,54.657a162.582,162.582,0,0,0,71.786,17.573c-4.927-3.942-10-8.014-15.044-12.581-29.119,11.826-75.268-29.94-62.785-59.452,23.551-42.209,94.549,11.5,75.251,48.514,24.142,22.467,53.08,39.975,83.331,52.408A758.2,758.2,0,0,1,308.205,382.39c-17.836-2.119-35.129-10.166-51.8-17.146a127.214,127.214,0,0,1-73.477,29.743c-11.217,47.411-111.843,29.87-88.916-21.666Zm9.705,24.471c14.863,23.37,72.9,20.874,69.9-13.517C164.846,353.925,84.028,358.886,103.719,397.792Zm200.5,94.681c-7.85-19.594-41.7-45.492-57.629-21.121-7.735,20.809,23.518,46.9,42.5,47.776C303.131,519.687,310.505,504.2,304.214,492.474Zm-69.552,22.549c-1.955-25.735-60.487-66.022-67.483-24.471C164.058,517.108,229.061,552.419,234.662,515.023Zm320.155-46.561c7.653-39.088-24.634-32.666-40.763-8.441-9.574,9.854-15.7,30.038-9.395,43.358C522.857,528.392,552.879,487.677,554.817,468.462Zm-77.681-15.9c-3.662-10.856-17.852-18.378-27.279-9.51-7.768,8.556-13.138,32.6-5.567,41.667,1.315,13.139,14.354,31.2,28.116,19.873,11.3-13.747,10.725-36,4.779-52.029Zm-82.314-39.252c-16.833-.328-19.708,19.888-16.423,32.847,2.973,25.194,32.814,61.013,45.033,19.117,4.812-19.855-5.831-49.944-28.559-51.963Zm91.609-56.924c17.869-9.18,35.063-30.532,29.989-51.569-6.849-18.066-32.4-15.438-41.928-1.084C462.569,311.767,451.5,329.9,453.7,345.123,455.884,360.954,474.672,363.517,486.431,356.389Zm-90.919-99.445c-1.363-13.665-15.52-26.983-29.1-18.985-19.609,14.075-24.207,56.431-7.193,74.151C390.9,335.482,402.443,279.083,395.512,256.944Zm-64.4-233.507c-5.667-6.57-13.466-20.513-22.533-9.575C283.324,27.838,291.42,77.749,320.6,81.527c9.623.361,14.338-9.739,16.423-17.705,3.86-12.908,3.367-29.759-5.913-40.385Zm-43.143,96.9a27.1,27.1,0,0,0-7.128-7.226c-1.806-5.222-10.132-3.285-14.124-1.758-25.785,10-15.6,68.65,8.064,76.582,7.358,2.119,13.894-2.628,17.081-9.46,14.42-16,6.914-42.159-3.892-58.122v-.017Zm-81.836,10.938c-40.287,8.771-4.927,104.65,30.2,74.579,11.25.969,6.9-18.066,6.34-25-3.958-19.445-15.274-45.262-36.542-49.566Zm-85.96,114.439c-19.708,27.411,32.108,74.4,58.351,57.154,29.677-29.841-28.823-85.813-58.351-57.137Zm131.616-39.745a14.557,14.557,0,0,1-10.117,9.51,169.572,169.572,0,0,0,41.058,58.582A723.133,723.133,0,0,1,274.916,198c-9.032-1.116-16.866-8.458-22.155-16.112,1.051,6.98,1.691,16.012-.969,24.094ZM432.447,484.343a48.308,48.308,0,0,1-1.281-10.807A35.693,35.693,0,0,1,420.409,489.3a147.369,147.369,0,0,0,36.46,52.178c-.164-8.605-.624-16.6-1.412-25.046-13.023-3.942-17.721-19.527-23.025-32.075Z" transform="translate(-90.629 0)" fill="#f9d5c9"/>
      </g>
    </g>
  </g>
</svg>
