<svg xmlns="http://www.w3.org/2000/svg" width="258.43" height="262.91" viewBox="0 0 258.43 262.91">
  <g id="_x38_0" transform="translate(-4.717 -4.166)" opacity="0.4">
    <path id="Path_14" data-name="Path 14" d="M235.109,144.5a31.715,31.715,0,0,0,10.151-6.066c3.362-3.029,16.068-23.74,9.872-27.9.256-1.116.673-2.3-.357-3.587a3.292,3.292,0,0,0-2.5-1.143,56.849,56.849,0,0,0-35.24,12.582,68.868,68.868,0,0,0-.181-33.441,3.052,3.052,0,0,0-5.449-.977,92.164,92.164,0,0,0-14.269,32.223,57.631,57.631,0,0,0-29.025-27.958,3.049,3.049,0,0,0-4.169,3.462c.8,3.61,3.473,14.228,9,23.541a44.814,44.814,0,0,0-13.02-1.436c1.222-4.971.5-12.377.242-14.6-2.094-17.787-9.959-29.036-19.593-35.16a50.474,50.474,0,0,0-24.09-8.3c7.483-4.633,11.284-13.519,10.418-19.688.137-.57.316-1.121.414-1.709a3.051,3.051,0,0,0-2.094-3.41C107.313,25.31,95.546,34.3,87.174,44.068a36.055,36.055,0,0,0,1.045-15.983C87.44,23.5,80.144,5.988,73.4,6.953,71.84,5.306,70.909,3.97,69.134,4.19a3.037,3.037,0,0,0-2.255,1.362,56.886,56.886,0,0,0-8.814,36.475A69.027,69.027,0,0,0,29.992,23.882a3.053,3.053,0,0,0-3.8,4.03A92.366,92.366,0,0,0,45.337,57.474,57.588,57.588,0,0,0,6.065,66.467a3.052,3.052,0,0,0,.617,5.384,80.832,80.832,0,0,0,24.733,5.28,53.529,53.529,0,0,0-16.5,45.4c2.517,20.776,15.935,37.042,31.9,54.662C72.84,205.8,78.3,213.313,88.593,217.959a84.922,84.922,0,0,0-2.138,10.823c-2.3,17.838,5.653,29.246,20.054,33.4,10.33,3.92,25.683,6.132,41.216,4.159,4.789-.608,4.684-4.919-.164-5.314a89.331,89.331,0,0,0-12.045-.053c7.281-1.171,14.229-3.6,22.176-5.605q23.438-5.9,46.8-12.085c12.053-3.189,24.812-6.866,33.085-16.193,10.969-12.366,13.041-34-2.089-54.355-.223-.459-.394-.909-.634-1.371.758.279,1.56.543,2.369.8a42.768,42.768,0,0,0,11.22,4.462c5.242,1.258,12.423.206,14.484-5.46-.137-.027-.277-.021-.414-.036a3.005,3.005,0,0,0,.523-2.609c-4.557-16.245-16.324-21.851-27.932-24.024Zm-40.656-18.406c-3.71-2.041-9.148-4.576-12.076-8.079-4.834-5.558-8.474-13.773-10.763-21.177a51.635,51.635,0,0,1,22.839,29.257Zm-14.679-2.109c6.429,5.839,14.933,7.687,19.8,13.595,10.451,12.615,9.295,27.947,20.488,46.067.1.167,11.553,16.508,14.591,16.508a3.042,3.042,0,0,0,2.666-1.572c.091-.164.128-.352.214-.518.784,11.534-5.913,22.043-15.112,28.857-15.186,11.289-35.915,13.036-54.492,17.115-3.8-1.8.334-13.475-5.568-20.335-2.954-3.438-7.941-5.094-14.075-4.6-4.1.354-8.221,1.431-11.875,1.116-2.914-.25-6.16-1.842-6.726-4.419-.993-4.449,5.739-9.336,6.739-16.262a12.851,12.851,0,0,0-2.853-9.91c-7.321-9.224-19.617-7.486-30.524-3.016,5.3-20.256,10.946-42.156,26.872-55.648a47.514,47.514,0,0,1,49.851-6.98ZM95.01,246.744c-2.636-4.538-3.432-10-2.509-17.183.01-.068.018-.226.022-.345,1.952-10.945,5.593-23.71,8.571-35.093,1.8-.648,11.284-5.647,19.588-5.007a12.087,12.087,0,0,1,8.117,4.3c6.184,7.814-7.318,13.616-5.064,23.694,1.255,5.733,7.013,8.742,12.161,9.179,4.627.392,8.984-.783,12.889-1.112,15.605-1.22,8.83,12.889,12.56,20.459-14.244,3.817-25.383,10.011-37.9,11.712-10.269,1.409-23.059-1.338-28.433-10.609ZM34.956,32.482A62.844,62.844,0,0,1,61.7,56.974a3.051,3.051,0,0,0,5.473-2.648,50.8,50.8,0,0,1,2.8-42.1c4.02,4.391,7.349,9.016,9.066,15.706C80.9,35.3,80.328,51.1,77.2,57.173a3.052,3.052,0,0,0,5.134,3.252c.933-1.219,1.9-2.537,2.9-3.911,8.01-10.942,17.89-24.429,35.415-20.5-3.641,11.335-17.36,18.763-20.254,20.22A3.053,3.053,0,0,0,101.942,62c8.277-.485,19.587.545,25.82,5.888-11.946,1.224-13.651,1.242-13.235,1.207a79.949,79.949,0,0,1-20.919-3.49c-9.979-2.946-23.643-6.927-34.517-3.5a3.015,3.015,0,0,0-.9-1.163A86.29,86.29,0,0,1,34.956,32.482ZM52.165,65.153c-3.982,2.124-7.605,4.4-11.821,5.384l.006.026c-.027.006-.051.023-.077.03l-.01-.039c-7.33,1.656-17.906-.192-25.12-2.295a51.534,51.534,0,0,1,37.023-3.1ZM20.973,121.8a47.253,47.253,0,0,1,21.4-45.513c8.48-2.2,14.567-8.295,22.217-9.154,16.425-1.828,28.216,7.477,49.769,8.064,6.394-.188,20.406-1.045,21.8-3.228a3.049,3.049,0,0,0,.127-3.061c-.09-.171-.232-.309-.327-.476,11.51,6.482,19.87,22.183,14.029,46.43-19.524,3.9-32.555,16.687-40.92,34.235-5.692,5.261-6.008,11.249-9.849,16.134-1.8,2.295-4.919,4.157-7.361,3.224-4.3-1.635-4.68-9.924-9.943-14.535-6.407-5.709-16.936-2.988-22.172,3.728-3.932,5.056-5.907,12.045-6.889,17.127-14.173-15.6-29.4-32.453-31.88-52.975Zm37.094,58.726c.393-1.664,1.364-12.544,6.485-19.131a12.113,12.113,0,0,1,8.074-4.447c9.841-.969,7.426,13.534,17.076,17.211,3.888,1.465,7.846.267,10.963-1.984-2.383,8.29-6.1,22.723-10.517,39.768-8.636-4.319-15.109-12.709-32.081-31.417ZM228.28,161.578a3.052,3.052,0,0,0-3.986,4.447c5.114,6.924,10.275,16.814,9.221,24.874-3.252-4.014-7.68-9.544-8.244-10.434-10.99-17.783-10.542-38.8-24.483-50.235,1.325-2.007.39-16.951,11.593-36.435a62.911,62.911,0,0,1-5.866,35.828,3.05,3.05,0,0,0,5.211,3.129,50.762,50.762,0,0,1,36.772-20.7c-1.483,5.761-3.534,11.073-8.173,16.187C235.17,133.814,221.6,141.985,214.8,142.7a3.052,3.052,0,0,0,.091,6.074c1.54.115,3.182.2,4.891.294,13.542.719,30.235,1.608,36.512,18.4-11.49,3.176-25.209-4.264-28.014-5.9Z" transform="translate(0 0)" fill="#f9d5c9"/>
    <path id="Path_15" data-name="Path 15" d="M48.374,42.412c2.806,0,3.15-3.11,3.809-4.149a3.049,3.049,0,1,0-5.59-2.438l-1.012,2.319a3.051,3.051,0,0,0,2.793,4.268Z" transform="translate(124.483 91.43)" fill="#f9d5c9"/>
    <path id="Path_16" data-name="Path 16" d="M42.141,48.9l-1.429,1.862a3.048,3.048,0,1,0,4.832,3.716l1.429-1.862A3.048,3.048,0,1,0,42.141,48.9Z" transform="translate(108.401 133.477)" fill="#f9d5c9"/>
    <path id="Path_17" data-name="Path 17" d="M51.165,49.294c2.458,0,2.97-2.391,4.046-3.7a3.049,3.049,0,0,0-5.126-3.3l-1.481,2.3a3.053,3.053,0,0,0,2.561,4.7Z" transform="translate(133.031 112.606)" fill="#f9d5c9"/>
    <path id="Path_18" data-name="Path 18" d="M48.44,55.541l-.953.441c-3.611,1.67-1.155,7.242,2.561,5.535L51,61.076a3.049,3.049,0,0,0-2.561-5.535Z" transform="translate(125.691 156.626)" fill="#f9d5c9"/>
    <path id="Path_19" data-name="Path 19" d="M59.513,60.224l1.465-1.83a3.048,3.048,0,1,0-4.764-3.8l-1.465,1.83a3.048,3.048,0,1,0,4.764,3.8Z" transform="translate(151.327 151.062)" fill="#f9d5c9"/>
    <path id="Path_20" data-name="Path 20" d="M55.635,51.519a3.049,3.049,0,0,0,.153-6.094l-.54-.02a3.071,3.071,0,0,0-2.932,2.978A3.225,3.225,0,0,0,55.635,51.519Z" transform="translate(145.913 126.42)" fill="#f9d5c9"/>
    <path id="Path_21" data-name="Path 21" d="M39.271,40.791a9.649,9.649,0,0,1-.993.588,3.051,3.051,0,0,0,1.354,5.781,5.9,5.9,0,0,0,3.021-1.294,3.049,3.049,0,1,0-3.383-5.074Z" transform="translate(97.691 110.707)" fill="#f9d5c9"/>
    <path id="Path_22" data-name="Path 22" d="M19.02,38.87a3.049,3.049,0,1,0-5.026,3.454l2.273,3.307a3.049,3.049,0,1,0,5.026-3.454Z" transform="translate(26.796 102.337)" fill="#f9d5c9"/>
    <path id="Path_23" data-name="Path 23" d="M16.775,32.387a3.049,3.049,0,0,0-5.729,2.088l1.965,5.384a3.049,3.049,0,0,0,5.729-2.088Z" transform="translate(18.831 80.365)" fill="#f9d5c9"/>
    <path id="Path_24" data-name="Path 24" d="M17.8,31.183a3.052,3.052,0,0,0,2.545-4.725L18.96,24.35a3.05,3.05,0,0,0-5.1,3.343c.93,1.1,1.553,3.49,3.938,3.49Z" transform="translate(26.495 57.656)" fill="#f9d5c9"/>
    <path id="Path_25" data-name="Path 25" d="M22.2,38.832l.776,2.215a3.049,3.049,0,1,0,5.757-2.009l-.776-2.215A3.049,3.049,0,1,0,22.2,38.832Z" transform="translate(53.064 93.855)" fill="#f9d5c9"/>
    <path id="Path_26" data-name="Path 26" d="M22.114,31.117a3.05,3.05,0,0,0,5.566-2.493l-1.118-2.5A3.05,3.05,0,0,0,21,28.619Z" transform="translate(49.085 61.777)" fill="#f9d5c9"/>
    <path id="Path_27" data-name="Path 27" d="M34.385,41.424a3.047,3.047,0,0,0,3.011-2.6l.155-1.048a3.05,3.05,0,0,0-6.035-.889l-.151,1.036A3.048,3.048,0,0,0,34.385,41.424Z" transform="translate(81.59 92.343)" fill="#f9d5c9"/>
    <path id="Path_28" data-name="Path 28" d="M35.379,32.417a3.049,3.049,0,1,0,5.793-1.906l-.733-2.227a3.049,3.049,0,1,0-5.793,1.906Z" transform="translate(91.28 67.515)" fill="#f9d5c9"/>
    <path id="Path_29" data-name="Path 29" d="M29.624,28.877a3.048,3.048,0,0,0,2.5-1.294l.27-.385L29.9,25.443l-2.632-1.556,2.362,1.941-2.493-1.755A3.054,3.054,0,0,0,29.624,28.877Z" transform="translate(67 60.454)" fill="#f9d5c9"/>
    <path id="Path_30" data-name="Path 30" d="M20.319,39.331a3.05,3.05,0,0,0,3.049-3.049V32.856a3.049,3.049,0,1,0-6.1,0v3.426A3.05,3.05,0,0,0,20.319,39.331Z" transform="translate(38.482 78.602)" fill="#f9d5c9"/>
    <path id="Path_31" data-name="Path 31" d="M30.911,40.5A3.049,3.049,0,0,0,33.3,36.909l-.991-4.891a3.05,3.05,0,1,0-5.979,1.207l.991,4.891A3.05,3.05,0,0,0,30.911,40.5Z" transform="translate(66.06 77.884)" fill="#f9d5c9"/>
    <path id="Path_32" data-name="Path 32" d="M40.429,28.689a3.05,3.05,0,0,0,3.049-3.049v-.488A3.05,3.05,0,0,0,40.429,22.1c-4.072,0-4.079,6.587,0,6.587Z" transform="translate(100.105 54.985)" fill="#f9d5c9"/>
    <path id="Path_33" data-name="Path 33" d="M44.952,37.515l-.5-.977a3.049,3.049,0,0,0-5.439,2.755l.5.977a3.049,3.049,0,1,0,5.439-2.755Z" transform="translate(104.135 94.119)" fill="#f9d5c9"/>
    <path id="Path_34" data-name="Path 34" d="M33.406,44.836l-1.189.794a3.052,3.052,0,0,0,1.707,5.578c1.329,0,2.231-.955,3.156-1.493a2.9,2.9,0,0,0,.7-4.129,3.2,3.2,0,0,0-4.373-.75Z" transform="translate(80.182 123.007)" fill="#f9d5c9"/>
    <path id="Path_35" data-name="Path 35" d="M42.309,44.532a3.05,3.05,0,0,0,3.049,3.049h.488a3.049,3.049,0,1,0,0-6.1h-.488A3.05,3.05,0,0,0,42.309,44.532Z" transform="translate(115.24 114.398)" fill="#f9d5c9"/>
    <path id="Path_36" data-name="Path 36" d="M51.623,56.873a3.05,3.05,0,0,0,2.892-4.014l-.5-1.477a3.049,3.049,0,1,0-5.777,1.953C48.516,53.8,48.763,56.873,51.623,56.873Z" transform="translate(132.932 138.393)" fill="#f9d5c9"/>
    <path id="Path_37" data-name="Path 37" d="M46.883,62.83a3.05,3.05,0,0,0,3.049,3.049H52.38a3.049,3.049,0,1,0,0-6.1H49.933A3.05,3.05,0,0,0,46.883,62.83Z" transform="translate(129.263 170.49)" fill="#f9d5c9"/>
    <path id="Path_38" data-name="Path 38" d="M56.916,65.893c2.443,0,2.9-2.257,3.218-2.664a3.049,3.049,0,1,0-5.455-2.724l-.488.977A3.05,3.05,0,0,0,56.916,65.893Z" transform="translate(150.665 167.539)" fill="#f9d5c9"/>
  </g>
</svg>
