<svg xmlns="http://www.w3.org/2000/svg" width="212.276" height="313.546" viewBox="0 0 212.276 313.546">
  <g id="pastry-bag_1_" data-name="pastry-bag (1)" transform="matrix(0.999, 0.035, -0.035, 0.999, -71.36, -12.866)" opacity="0.4">
    <path id="Path_41" data-name="Path 41" d="M91.033,283.557a13.951,13.951,0,0,1-1.482-8.049c.633-6.433,5.389-13.322,12.494-14.919a24.468,24.468,0,0,1-.324-5.433c2.466-27.787,28.094-46.807,33.852-48.017a3.8,3.8,0,0,1,4.413,2.049c.671,1.371.958,3.334,1.395,6.3.639,4.374,1.6,10.84,4.171,16.479l14.4-123.816c1.518-13.215,9.1-24.739,20.2-30.7L200,66.778a42.129,42.129,0,0,1,19.4-5.042L219.881,24A12.756,12.756,0,0,1,225.5,13.461c5.263-3.384,10.084-4.3,14.321-2.712,4.27,1.6,7.677,5.706,9.853,11.892a12.15,12.15,0,0,0,6.152,5.683,11.166,11.166,0,0,0,9.968-.759c3.394-1.818,7.355-1.378,10.862,1.2,4.828,3.553,7.961,10.326,7.445,16.1-.436,4.9-4.49,9.033-6.668,11.255L254.589,79.4a49.848,49.848,0,0,1,9.619,23.846l2.568,20.361c1.708,13.831-3.407,27.621-13.505,36.413L160.646,240.1c1.255-.159,2.639-.393,4.175-.722,4.784-1.024,11.652-1.706,16.056,4.184a15.22,15.22,0,0,1,3.052,10.255c7.244,2.115,11.166,8.151,10.884,17.052-.021.665-.074,1.279-.141,1.87,3.212,2.574,9.182,8.269,10.478,15.854a20.163,20.163,0,0,1-3.429,15.194,23.664,23.664,0,0,1-9,7.685c-9.026,4.174-19.277,5.218-29.784,5.218-5.309,0-10.683-.266-16-.529-6.8-.337-13.816-.681-20.317-.421q-4.425.3-9.218.3A170.107,170.107,0,0,1,97,314.756c-8.82-1.064-12.282-5.84-13.633-9.662-2.218-6.272.03-13.694,2.506-16.644A34.251,34.251,0,0,1,91.033,283.557ZM272.63,50.7c1.3-1.323,4.341-4.422,4.529-6.538.269-3.027-1.769-7.251-4.45-9.226-1.417-1.044-2.7-1.272-3.8-.68a17.6,17.6,0,0,1-15.628,1.03c-5.332-2.244-8.99-6.758-10.131-10.007-.992-2.819-2.773-6.4-5.621-7.468-2.2-.822-5.037-.125-8.444,2.064a5.112,5.112,0,0,0-2.231,4.229l-.482,38.114a42.227,42.227,0,0,1,4.236.878l4.335-18.223a3.475,3.475,0,0,1,4.241-2.7,3.769,3.769,0,0,1,2.516,4.549l-4.453,18.722,4.363,2.27,14.13-21.653a3.339,3.339,0,0,1,4.856-.919,3.915,3.915,0,0,1,.857,5.209L247.423,71.851q1.217,1.02,2.36,2.125ZM248.892,154.195a33.8,33.8,0,0,0,10.971-29.586l-2.567-20.361a42.133,42.133,0,0,0-7.8-19.7,59.6,59.6,0,0,1,.1,34.663,3.447,3.447,0,0,1-4.374,2.441,3.8,3.8,0,0,1-2.276-4.692,52.023,52.023,0,0,0-3.722-39.03c-.746,5.263-2.275,11.93-5.415,17.2a3.349,3.349,0,0,1-4.815,1.141,3.9,3.9,0,0,1-1.064-5.165c3.419-5.746,4.514-14.058,4.865-18.638a81.82,81.82,0,0,0-21.472,24.824,3.358,3.358,0,0,1-4.774,1.324,3.9,3.9,0,0,1-1.234-5.121,88.564,88.564,0,0,1,19.5-23.947,35.274,35.274,0,0,0-21.693,3.917L183.279,84.14a32.317,32.317,0,0,0-16.406,24.94L157.6,188.8c11.216-1.013,19.267,4.12,24.246,8.958a43.315,43.315,0,0,1,6.757,8.561Zm-69.546,60.128,3.795-3.281a35.98,35.98,0,0,0-5.977-7.742c-5.865-5.7-12.737-7.993-20.452-6.864l-.533,4.585c10.681-.526,18.808,6.934,23.17,13.3Zm-5.457,4.718c-2.771-4.142-9.178-11.646-18.6-10.441l-3.429,29.485Zm1.544,29.2c-1.046-1.394-2.6-2.07-4.932-2.07a21.026,21.026,0,0,0-4.318.542c-10.485,2.248-17.55,1.184-21.608-3.25-7.33-8.009-9.055-19.777-10.087-26.808-.037-.257-.076-.522-.116-.79-6.9,4.532-23.9,19.573-25.711,40a17.835,17.835,0,0,0,.318,3.8l.13-.016c24.614-2.787,32.316-6.193,34.485-7.528a3.362,3.362,0,0,1,4.76,1.382,3.891,3.891,0,0,1-1.289,5.106c-5.554,3.418-18.426,6.351-37.224,8.478l-5.172.656c-4.564.284-7.8,4.66-8.185,8.552-.225,2.288.429,5.287,4.823,6.583,10.6,3.123,27.739.446,45.851-7.162,16.572-6.962,28.153-15.805,29.38-20.007a7.893,7.893,0,0,0-1.1-7.469Zm14.524,56.364c2.789-1.291,9.732-6.443,8.329-14.664-.656-3.847-3.573-7.388-6.109-9.757-.05.09-.1.18-.146.27-4.236,7.543-14.121,20.641-34.419,28.67,11.622.322,23.009-.206,32.346-4.522ZM89.885,302.445c.962,2.722,3.618,4.363,7.892,4.88a152.671,152.671,0,0,0,28.243.955v-.007c.04,0,.08,0,.12,0,13.889-.928,26.038-4.114,36.3-9.543,13.837-7.321,20.732-17.01,23.611-22.135a11.209,11.209,0,0,0,1.782-5.978c.21-6.622-2.886-8.858-6.023-9.675-4.972,8.122-19.824,16.577-32.114,21.74-16.8,7.059-29.434,8.93-38.1,8.93a43.21,43.21,0,0,1-12.137-1.52,15.936,15.936,0,0,1-3.187-1.326,28.614,28.614,0,0,0-5.22,4.7,11.768,11.768,0,0,0-1.161,8.981Z" transform="translate(0 0)" fill="#f9d5c9"/>
  </g>
</svg>
