<svg xmlns="http://www.w3.org/2000/svg" width="468.646" height="351.387" viewBox="0 0 468.646 351.387">
  <g id="Group_66" data-name="Group 66" transform="translate(835.58 -2256.967)">
    <path id="Path_51" data-name="Path 51" d="M-64.758,21.8c-3.612,1.29-9.546,1.935-13.158,0-3.741-2.064-2.322-7.74-1.548-11.094C-77.916,3.741-75.207-3.1-72.5-9.8c1.548-3.483,2.967-7.1,4.515-10.707.387-.774,3.741-9.159,3.612-9.159-.258,0-.645.387-.9.9,4.515-9.417,12.126-19.866,10.062-31.089-.9-4.773-4.257-9.546-9.546-9.417-4.515,0-8.643,3.354-11.739,6.192-5.8,5.16-10.578,11.223-15.093,17.415-.516.645-2.58,3.741-4.9,7.353,1.161-1.935,2.709-3.741,4-5.547-5.418,7.611-10.191,15.609-14.835,23.607,3.612-12.126,9.546-23.349,14.577-34.83,1.935-4.257,5.16-8.127,6.966-12.513a15.423,15.423,0,0,0-2.451-14.835c-7.1-8.643-17.286,6.321-21.543,10.836-8.643,9.159-15.867,19.995-22.575,30.444.9-2.838,1.419-5.547,2.451-8.385,1.29-3.612,2.709-7.1,3.87-10.707,1.29-3.741,2.451-7.611,3.612-11.352s2.451-8.772,1.548-12.771c-.645-2.838-1.806-6.837-3.87-9.03-3.225-3.483-7.74-3.225-11.868-1.935a28.671,28.671,0,0,0-9.933,5.418c-1.548,1.419-2.967,2.838-4.386,4.386l-1.29,1.806c-.774,1.032-.645,2.064-1.032,2.967-1.29,2.838-3.483,5.031-4.386,8.127-.9,3.483-1.161,8.385.9,11.481,1.032,1.419,2.709,2.451,4.257,1.161.9-.9.516-1.806.645-2.838a23.894,23.894,0,0,1,1.032-4.128A51.59,51.59,0,0,1-140.352-84.5c1.935-2.193,4.257-4.257,7.1-5.031,3.87-.9,4,2.193,3.483,5.289l-.774,4.773v-1.29c-3.741,13.932-10.965,26.832-15.867,40.248-2.451,6.579-5.289,12.771-8,19.221S-160.218-7.224-160.6-.129c-.129,2.451.387,4.9,2.322,6.45,2.193,1.806,5.547,1.935,7.224-.387,1.29-1.806,1.935-5.031,2.709-7.1,1.29-3.354,2.451-6.708,3.87-9.933,1.29-3.483,3.483-6.579,5.418-9.8,4.128-6.708,8.256-13.416,12.642-20,4.128-6.321,8.256-12.513,12.771-18.447,4.515-5.8,9.03-11.739,14.964-16.125.9-.645,4-3.1,5.289-2.58,1.032.387,0,2.322-.387,3.354a107.548,107.548,0,0,1-8.256,17.415c-7.482,12.642-15.222,26.832-18.06,41.409-1.032,4.9-1.032,9.8,2.838,13.545,4,3.741,5.418.516,6.708-3.1,1.032-2.967,3.225-5.547,4.773-8.256,2.193-3.612,4.257-7.353,6.579-11.094,1.419-2.064,2.451-4.9,4.128-6.45,2.709-2.709,4.644-5.8,6.837-8.9,4.515-6.45,9.03-12.642,14.835-17.931,1.419-1.29,4.644-4.644,6.837-4.128,2.709.645-.258,4.9-.129,6.579l.9-1.806c-.774,2.322-1.548,4.515-2.451,6.708-.129-.129.387-1.677.387-1.677-.516-.129-3.225,6.063-3.612,6.708-1.935,4-4.257,8-5.676,12.255-1.419,3.87-2.838,7.482-4.515,11.223l-2.838,6.45c-.516,1.419-2.064,4.515-1.677,6.063.129,0,.258,0,.258-.129l-.645,2.322A14.8,14.8,0,0,0-86.3-9.288c-.516.387-.645,2.967-.645,2.967-3.1,10.836-4.386,22.317,3.1,31.992,3.612,4.644,7.869,6.708,13.545,5.16a18.615,18.615,0,0,0,7.482-3.741c1.29-1.161,5.289-4.644,4.773-6.708C-58.437,18.318-63.468,21.414-64.758,21.8ZM-81.915-16.9c1.161-2.322,2.193-4.773,3.225-7.224.774-1.935,1.29-5.418,2.58-6.966.387.129.387.516,0,1.29-.9,4.644-3.483,9.8-5.547,14.19C-83.334-11.868-85.011-8-86.3-4.128-85.011-8.385-83.979-12.642-81.915-16.9ZM-139.062-55.47c1.806-4.257,3.225-8.772,5.031-13.029a63.207,63.207,0,0,0,2.322-5.934A92.754,92.754,0,0,1-138.03-56.5c-2.709,5.547-5.16,11.223-7.482,17.028C-143.448-44.892-141.384-50.181-139.062-55.47Zm41.28,19.092c-3.354,5.418-6.966,10.965-6.966,10.965C-104.361-25.284-99.588-33.282-97.782-36.378Zm19.608-24.639-4.773,5.031A59.163,59.163,0,0,1-78.174-61.017ZM-87.333,0c-.387-.129-.387-.387,0-.9C-87.075-.774-87.075-.516-87.333,0Zm3.1-54.438.258-.387v.129a4.109,4.109,0,0,1,.774-1.032l.258-.258-.258.387-.129.129-.258.258-.129.129a.126.126,0,0,0,.129-.129l-.129.129-.129.258ZM-97.524-36.765l.516-.774v.129Zm-.258.387.258-.387C-97.524-36.636-97.653-36.507-97.782-36.378ZM-83.334-55.6l.129-.129A.126.126,0,0,1-83.334-55.6ZM-12.9-31.734c-.258-1.677-2.064-1.161-2.967-.516-1.161.774-7.611,9.288-7.095,9.933a1.088,1.088,0,0,0,.9-.258c-1.806,2.193-5.16,4.644-7.611,6.579-1.419,1.161-4.9,4.386-6.966,3.354-4.386-2.193,4.515-17.673,4.128-17.8s-3.612,7.1-4.257,8.772A66.614,66.614,0,0,1-30.7-34.7c-.129.387-.516,1.032-.258,1.032.258.129,2.193-2.58,1.806-2.838a.776.776,0,0,0-.516.129c.387-.387,1.032-.516,1.032-1.29,0-1.29-2.967-2.58-4-2.967-2.451-1.032-4.9-1.29-6.837,0-2.58,1.548-3.1,4.644-4.128,7.353-.258.774-2.709,9.933-2.193,10.062.258-.129.258-.258.387-.516l-.387,2.322c-.129,0,.129-.645-.129-.645-1.032,0-.774,4.644-.645,5.289.516,2.322,2.322,4,3.741,5.934a10.432,10.432,0,0,0,2.709,3.1c1.548,1.161.516,0,1.548.516h-.258c-.129.774,4.773,2.064,5.805,1.935,4.515-1.032,7.74-6.579,10.32-10.062,2.451-3.1,4.515-6.192,6.708-9.417C-14.706-26.445-12.384-29.283-12.9-31.734ZM-35.475-47.988c.258.387-.129.9.774,1.419.9.387,1.419-.129,2.193-.387,1.548-.645,2.709-2.322,3.87-3.354.387-.258-.387-.129-.387-.129,1.677-1.548.258.258,1.806-.645,1.548-1.032,1.806-2.709,3.1-4.128a9.056,9.056,0,0,0-3.741,2.838,12.435,12.435,0,0,1-3.612,3.354,14,14,0,0,0,3.612-4.386,4.633,4.633,0,0,1,1.29-.9c-.387-.387-.387-.774.129-1.161.387-.645,1.161-.9,1.548-1.548.645-.9.516-2.064,1.29-2.967.645-.516,1.548-.9,2.064-1.419,1.161-1.032,2.451-2.967,1.935-4.644a9.111,9.111,0,0,0-3.225-4.386,7.047,7.047,0,0,0-5.805-.516c-.387.129-1.935.516-1.419,1.032.129.258.258.258.516.258-1.161.9-3.1,2.451-.387,3.483-.258.258,0,1.419,0,1.548a53.355,53.355,0,0,1-3.1,8l1.548-2.322a30,30,0,0,1-3.1,5.289c.774-1.677-.774.258-.774.645-1.419-.645-1.032,3.354-.9,3.741A11.344,11.344,0,0,0-35.475-47.988Zm-2.451,30.7v.129l-.258.774.258-1.032C-37.8-17.544-37.8-17.544-37.926-17.286ZM-33.669-55.6a3.193,3.193,0,0,0,.516-.774Zm-1.29,2.451c0,.129,0,.129-.129.258a.126.126,0,0,0-.129-.129C-35.088-53.019-35.088-53.019-34.959-53.148ZM79.464-33.669C76.755-35.475,68.886-17.286,67.6-14.964c-4.773,8.9-9.675,17.8-15.093,26.316a79.158,79.158,0,0,1-9.03,12.513c-1.29,1.419-3.483,4.257-5.676,4.386-6.966.387-1.548-15.609-3.1-18.189A32.156,32.156,0,0,0,33.669,13.8a44.848,44.848,0,0,1,.645-4.644,15.078,15.078,0,0,0,.774-2.58l.774-4c.645-2.838,1.29-5.676,2.064-8.514,1.419-5.934,3.1-11.868,4.773-17.8.645-2.064,1.032-4.773,2.064-6.708,1.161-2.193,3.354-4.128,4.9-6.192,3.354-4.515,6.45-9.288,9.675-13.932a128.164,128.164,0,0,0,7.611-12.771c1.548-3.225,4.386-5.676,6.321-9.03,4.644-8.514,11.868-20.9,8.256-30.96-1.677-4.9-7.482-8.772-12.255-5.547-3.741,2.709-6.45,7.224-8.772,11.094-.645,1.032-7.1,12.384-6.966,12.384.129.129.774-1.032,1.29-1.806-1.677,3.1-3.1,6.192-4.644,9.288l.9-2.58c-.645,0-3.354,6.321-3.741,6.966-1.419,2.838-2.58,5.676-3.87,8.514a134.636,134.636,0,0,0-6.837,18.189c-1.677,6.321-3.87,12.384-5.805,18.576-1.032,3.1-1.677,6.45-3.1,9.417-1.677,3.1-3.87,6.192-5.805,9.159A158.677,158.677,0,0,1,9.8,7.1c-2.064,2.451-6.192,8-9.933,7.611C-7.482,13.8-.9-12.513-1.29-12.513s-.645,1.161-.9,2.193a13.244,13.244,0,0,1,.645-3.1c0,.645.516-.9.516-1.032L0-18.318c.774-2.967,1.548-5.805,2.451-8.772,1.161-4.515,4.773-8,7.353-11.868A266.628,266.628,0,0,0,24.768-63.6c.645-1.548,1.677-2.064,2.709-3.354a64.029,64.029,0,0,0,4.515-7.482,127.3,127.3,0,0,0,7.353-15.222c2.967-7.224,7.74-17.157,2.451-24.51-2.322-3.225-6.708-5.16-10.32-2.967-2.451,1.548-4.386,4.128-6.063,6.321-.774,1.032-1.548,2.451-2.451,3.87l-.258.516a7.089,7.089,0,0,1-.9,1.161v.129a.126.126,0,0,0-.129.129c-1.419,2.322-2.967,4.9-4.257,7.353a19.847,19.847,0,0,1,1.032-2.451c-.645,0-3.612,5.934-4,6.579-1.806,2.838-3.225,5.934-4.773,8.9A114.28,114.28,0,0,0,2.838-68.112C1.032-62.565-1.161-57.147-3.1-51.6c-1.29,3.354-2.451,6.708-3.483,10.191-.774,2.451-2.58,6.192-2.193,8.772h.258a30.118,30.118,0,0,0-.9,3.225c.129-.9.129-1.806.258-2.193-.645.9-.645,4-.645,4.257-2.322,8.9-4.773,17.544-5.289,26.832-.516,7.611-.129,19.479,8.385,22.7,5.031,1.935,9.288-.645,13.029-4C13.932,11.481,20,2.58,25.542-5.805A8.516,8.516,0,0,0,25.413-4c-1.548,8.514-3.612,17.286-2.58,26.187.645,6.321,3.354,13.416,10.449,14.448a8.972,8.972,0,0,0,6.192-1.548C47.343,29.8,52.761,19.737,57.792,12,62.952,3.741,67.854-4.644,72.24-13.416c1.548-2.967,2.709-6.192,4.386-9.159C77.529-24.123,82.3-31.734,79.464-33.669ZM7.74-44.763a4.035,4.035,0,0,0,.645-1.29c-.516.774-.516.516,0-.645l.774-2.193,1.161-3.483c.9-2.838,1.935-5.676,2.967-8.514,1.806-5.289,3.483-10.578,5.418-15.867,2.064-5.805,4.257-11.61,6.837-17.286,2.193-5.031,4.515-10.578,8.127-14.835,1.419-1.806,3.225-3.1,3.87.258,1.032,4.9-2.967,12.255-4.9,16.641-2.451,5.547-5.16,11.094-7.869,16.512l-4.515,8.256c-1.29,2.322-3.225,4.773-4.128,7.224,1.032-2.322,3.225-5.16,4.515-7.224l5.418-10.449A183.5,183.5,0,0,0,35.346-97.4C28.38-78.69,17.931-61.017,7.482-43.989l.258-.516Zm41.667-.516c2.967-9.288,5.805-18.576,9.417-27.735,1.677-4.644,3.612-9.417,5.676-13.932,2.064-4.644,4.128-9.8,7.482-13.674.645-.9,1.419-2.064,2.58-1.935,4.128.645-.774,11.481-1.548,13.416-2.193,5.16-4.773,10.062-7.353,15.093-1.29,2.451-2.58,4.9-4,7.353C60.5-64.887,58.7-62.565,58.05-60.5a24.283,24.283,0,0,1,2.064-2.967l2.58-4.644L68.37-78.69c2.58-5.16,6.321-10.965,7.611-17.028-1.548,6.837-5.676,13.674-8.514,19.35-4,7.611-8.256,15.093-12.642,22.446.258-.387-.258.645-2.451,4l-.129.129-.129.129a.126.126,0,0,0,.129-.129l-.129.129ZM39.345-24.639a174.724,174.724,0,0,1,6.579-20.124c-4,14.577-9.159,28.9-12.126,43.6C35.346-8.9,37.281-16.77,39.345-24.639ZM-8.514-20c-.129.387-.258.387-.258.387C-10.191-16-10.191-11.352-10.836-7.482c-.258,1.548-.774,2.064-.9,3.1,0-.516.129-1.161.129-1.935L-12-4.257A97.819,97.819,0,0,1-10.32-16.383c.387-2.838,1.032-5.547,1.548-5.547C-8.514-21.93-8.385-20.124-8.514-20ZM11.868-80.109q1.742-4.063,3.87-8.127c1.161-2.193,3.354-4.128,4.644-6.45-2.58,5.16-5.934,9.933-8.643,14.964C11.61-79.464,11.481-79.335,11.868-80.109Zm20.253-27.477c.774-1.161,2.193-3.612,3.741-3.612.129,0,.258.129.387.129-2.322.516-6.192,6.837-8.127,10.578A43.2,43.2,0,0,1,32.121-107.586ZM31.734,12.255a5.587,5.587,0,0,0-.129.645,8.977,8.977,0,0,1,.258-2.064C31.863,11.223,31.734,11.739,31.734,12.255ZM-10.32-15.738a20.027,20.027,0,0,0-.516,2.709ZM25.671-5.289a1.071,1.071,0,0,1,.258-1.032Zm-3.741-100.1,1.032-1.548-.258.516ZM53.019-51.084c-.129.387-.258.387-.387.645Zm-64.371,41.8c0-.258.129-.774.129-1.161C-11.223-10.062-11.352-9.675-11.352-9.288Zm.387-2.58v0Zm.129-1.161c0,.258-.129.387-.129.516Zm-.258,2.193c0,.129-.129.258-.129.387C-11.223-10.578-11.094-10.707-11.094-10.836ZM52.5-50.31l.129-.129A.126.126,0,0,0,52.5-50.31Zm74.82,18.447c0,.129,0,.129-.129,0v-.129c-2.064-3.483-4.773,1.29-5.934,2.967-2.193,2.967-4.257,5.805-6.579,8.514a70.409,70.409,0,0,0-5.547,7.1,4,4,0,0,1-.258.9c-.516.774-1.29,1.419-1.935,2.193-1.161,1.161-2.322,2.451-3.612,3.612-1.935,1.806-12.771,12-14.19,5.418-.774-3.225.258-7.224.9-10.32.387-1.677.774-3.225,1.032-4.9.258-1.29-.129-2.58.516-3.87.387-.774.516-.645,1.419-.9l2.193-.774a23.546,23.546,0,0,0,4.128-1.806,41.962,41.962,0,0,0,5.418-4c4-3.354,8.256-7.353,9.933-12.384.9-2.838,1.032-5.934-.774-8.385-1.677-2.193-4.515-3.354-7.095-3.87-6.966-1.29-12.255,2.709-16.254,8A51.811,51.811,0,0,0,80.5-23.349c-.9,3.741-1.419,7.482-2.064,11.352S77.4-4.515,79.464-.9c-.129-1.29-.387-2.451-.387-3.612,0-.645.258-1.29.258-1.806,0-.258-.258-1.032-.258-1.419a14,14,0,0,1,.516-3.225c.129-1.161,0-2.322.129-3.483a11.091,11.091,0,0,1,1.161-3.483c.387-1.032.516-1.935.9-2.967.387-.9.645-1.935,1.032-2.967a12.211,12.211,0,0,1,1.161-2.193c-.387,1.161-1.161,2.193-1.419,3.225-.387,1.548-.129,3.225-.258,4.773-.258,1.677-.774,3.354-1.032,5.16-.258,1.677-1.032,3.225-1.29,4.9-.258,1.548-.774,2.709-.645,4.257a15.88,15.88,0,0,0,.258,2.58A4.751,4.751,0,0,0,81.012,1.29a17.264,17.264,0,0,0,8.514,5.547,8.387,8.387,0,0,0,6.579-.645,34.173,34.173,0,0,0,8.127-6.708c2.193-2.451,3.87-5.16,5.805-7.74,1.806-2.322,4-4.515,5.8-6.837l6.966-9.03,4-5.289C127.452-30.186,127.839-30.831,127.323-31.863ZM95.331-30.444a1,1,0,0,0,.129-.387c1.935-4.128,3.354-8.514,6.063-12.513l2.322-3.1a5.991,5.991,0,0,1,2.322-2.064c1.935-.387,2.451,2.967,2.322,4.257l-.516,2.709c-.129.774.129,1.29,0,1.935-.258.774-.9,1.161-1.29,1.806l-2.193,2.838a37.289,37.289,0,0,1-10.836,8.643C94.3-27.735,94.686-29.154,95.331-30.444ZM-151.188,103.04s.129.129,0-.129c-.9-2.838-6.579,4.9-7.224,5.676-3.354,4-6.708,8.127-10.191,12-1.419,1.548-6.45,8.514-8.9,8-1.161-.258-.258-6.45-.258-6.45a2.7,2.7,0,0,0-.516.774c1.032-4.9,4-10.707,6.063-15.609,2.193-5.547,5.418-12.771,3.741-18.963-1.935-7.1-9.288-3.483-12.771-.129-1.29,1.29-12,15.222-11.868,16.125l2.58-3.483a91.124,91.124,0,0,0-5.547,9.546c1.29-4.515,2.58-9.159,4.128-13.674,1.161-3.1,3.1-6.321,4-9.546,1.032-4.128-2.58-9.8-7.224-9.159-3.354.387-6.192,4.257-7.869,6.966-2.064,3.354-4.515,6.45-6.579,9.675-2.451,4-4.515,8.385-6.579,12.513-1.806,3.354-2.709,7.224-4.644,10.32.258-1.419-.258-2.451-.258-3.741a19.3,19.3,0,0,1,.774-3.741c.387-1.806,1.419-3.354,1.806-5.16.258-.9,0-1.29.258-2.193a5.955,5.955,0,0,1,1.161-1.935c.9-1.29,2.064-2.451,2.838-3.741.129-.258.387-.516.387-.774.516-1.806-.774-2.451-1.419-3.354-.645-.774-1.29-2.451-2.322-3.354-.774-.645-2.064-1.419-2.967-1.032-1.161.516-.645,1.161-1.032,1.806a31.774,31.774,0,0,1-2.193,3.483,46.26,46.26,0,0,0-2.58,6.579c-1.548,4.515-3.354,9.159-3.1,13.932.129,3.612-.9,6.579,1.806,9.8,1.29,1.548,6.321,4.9,7.611,2.58a6.536,6.536,0,0,0,.258-1.677c.387-1.29,1.29-2.451,1.806-3.741,1.29-2.58,2.451-5.289,3.87-8,3.612-6.837,6.321-13.416,10.578-20a60.651,60.651,0,0,1,4.386-5.676c.387-.387,2.322-3.1,2.58-2.967,2.064.129-2.064,8-2.451,9.417-1.677,4.386-4.644,8.9-5.16,13.545-.129,1.548.258,2.064-.129,3.483a15.7,15.7,0,0,0-.9,4.9,6.691,6.691,0,0,0,2.064,4c4.128,4,5.8-.645,7.611-3.741,2.193-3.612,4.257-8.772,6.966-11.481,4.257-4.128,6.45-9.675,10.707-13.674-.645,1.419-4.257,10.191-4.128,10.32a2.7,2.7,0,0,0,.516-.774c-.516,1.419-1.032,2.709-1.419,4-.258-.129.258-1.161.129-1.161-.774-.129-3.1,7.1-3.225,7.611a22.677,22.677,0,0,0-1.29,7.74,49.32,49.32,0,0,0,.387,7.482A14.9,14.9,0,0,0-185.5,130.9c.258.645,2.064,2.451,2.064,2.193.129.258.129.516.387.645l-.129-.129c-.258,1.032,5.16,2.838,6.063,2.709,4.515-.129,9.03-6.192,11.481-9.417,3.612-4.386,6.837-9.159,10.062-13.8C-153.9,110.651-150.414,106.394-151.188,103.04ZM-197.5,94.526h.129a1.856,1.856,0,0,0-.258.387c-1.548,3.225-2.322,6.966-3.612,10.449-1.032,2.58-2.322,5.676-2.58,8.514a29.576,29.576,0,0,1,1.806-9.03c1.032-3.1,2.58-6.063,3.87-9.03.516-1.032,3.612-9.03,3.1-11.094.774,1.806-1.548,7.869-2.322,9.8V94.4Zm86.3,7.611c0,.129,0,.129-.129,0v-.129c-2.064-3.483-4.773,1.29-5.934,2.967-2.193,2.967-4.257,5.805-6.579,8.514a70.408,70.408,0,0,0-5.547,7.1,4,4,0,0,1-.258.9c-.516.774-1.29,1.419-1.935,2.193-1.161,1.161-2.322,2.451-3.612,3.612-1.935,1.806-12.771,12-14.19,5.418-.774-3.225.258-7.224.9-10.32.387-1.677.774-3.225,1.032-4.9.258-1.29-.129-2.58.516-3.87.387-.774.516-.645,1.419-.9l2.193-.774a23.545,23.545,0,0,0,4.128-1.806,41.962,41.962,0,0,0,5.418-4c4-3.354,8.256-7.353,9.933-12.384.9-2.838,1.032-5.934-.774-8.385-1.677-2.193-4.515-3.354-7.1-3.87-6.966-1.29-12.255,2.709-16.254,8a51.811,51.811,0,0,0-10.062,21.156c-.9,3.741-1.419,7.482-2.064,11.352s-1.032,7.482,1.032,11.094c-.129-1.29-.387-2.451-.387-3.612,0-.645.258-1.29.258-1.806,0-.258-.258-1.032-.258-1.419a14,14,0,0,1,.516-3.225c.129-1.161,0-2.322.129-3.483a11.091,11.091,0,0,1,1.161-3.483c.387-1.032.516-1.935.9-2.967.387-.9.645-1.935,1.032-2.967a12.212,12.212,0,0,1,1.161-2.193c-.387,1.161-1.161,2.193-1.419,3.225-.387,1.548-.129,3.225-.258,4.773-.258,1.677-.774,3.354-1.032,5.16-.258,1.677-1.032,3.225-1.29,4.9-.258,1.548-.774,2.709-.645,4.257a15.881,15.881,0,0,0,.258,2.58,4.751,4.751,0,0,0,1.419,2.451,17.264,17.264,0,0,0,8.514,5.547,8.387,8.387,0,0,0,6.579-.645,34.173,34.173,0,0,0,8.127-6.708c2.193-2.451,3.87-5.16,5.805-7.74,1.806-2.322,4-4.515,5.8-6.837l6.966-9.03,4-5.289C-111.069,103.814-110.682,103.169-111.2,102.137Zm-31.992,1.419a1,1,0,0,0,.129-.387c1.935-4.128,3.354-8.514,6.063-12.513l2.322-3.1a5.991,5.991,0,0,1,2.322-2.064c1.935-.387,2.451,2.967,2.322,4.257l-.516,2.709c-.129.774.129,1.29,0,1.935-.258.774-.9,1.161-1.29,1.806l-2.193,2.838a37.289,37.289,0,0,1-10.836,8.643C-144.222,106.265-143.835,104.846-143.19,103.556Zm75.594-.9c-.774-3.354-3.87,1.161-4.515,1.935l-7.1,9.546-6.966,9.159-3.741,4.773c-.387.516-3.225,4.128-2.967,4.128.258-.258.645-.258,1.032-.645-1.935,2.064-9.03,8.514-10.32,6.966-1.032-1.29,1.806-6.708,2.193-8,1.419-3.741,2.709-7.611,4.257-11.223,1.677-3.741,3.612-7.482,5.16-11.223,1.548-4-.774-5.418-4.515-6.321-1.677-.387-3.741-.387-5.676-.645a.126.126,0,0,0,.129.129,41.236,41.236,0,0,1,6.192,1.032c-3.1-.9-6.966-.516-9.417-1.161-1.677-.387-2.709-.387-2.451-2.322.258-2.58,2.967-5.289,3.87-7.74,0,.129-.9,2.451-.774,2.451.645.258,1.677-3.354,1.677-3.87-.129-.645-1.677-2.58-1.806-1.806l.258.387c-6.192-4.257-13.545,4.515-12.255,10.836.258.9.774,1.419,1.161,2.451.258.774,0,1.677.774,2.709,2.709,3.354,7.611,3.483,11.481,2.709-.645.9-7.482,15.351-7.1,15.48l-.9,3.225c-.129-.129.387-1.161.129-1.161-.9-.129-2.709,7.353-2.838,8a14.149,14.149,0,0,0,.9,8.643,8.78,8.78,0,0,0,3.354,4.386,7.051,7.051,0,0,0,5.289,1.161c.645-.258,3.1-1.935,2.451-1.806l.9-.387c-.129.129-.258.258-.258.387.387.129,6.321-4.644,7.1-5.16a66.551,66.551,0,0,0,10.578-12c3.1-4.386,6.321-8.772,9.288-13.158a45.17,45.17,0,0,0,3.741-6.321C-68.5,106.652-67.209,104.459-67.6,102.653Zm-38.571,15.48a63.159,63.159,0,0,1,3.1-6.708c.258-.387,2.064-5.031,2.967-5.289-.645.387-3.354,6.708-4,7.869l-2.451,5.676a78.594,78.594,0,0,0-3.612,9.675A68.291,68.291,0,0,1-106.167,118.133Zm-3.1,24.768a7.2,7.2,0,0,0,3.225,2.58A7.656,7.656,0,0,1-109,143.675c.129,0,.129.129.129.258a20.713,20.713,0,0,1-1.935-3.612,15.764,15.764,0,0,1-.387-4.9,15.168,15.168,0,0,1,.387-3.483v.129a22.71,22.71,0,0,0-.258,5.16v.645a.4.4,0,0,1-.129-.258,1,1,0,0,0,.129.387v.129l.516,2.709-.387-1.677c.258.774.9,2.193,1.548,3.612l-.129-.129c0,.129.129.258.258.387Zm3.612-42.57a6.246,6.246,0,0,0,2.967.774,5.122,5.122,0,0,1-2.58-.9,5.823,5.823,0,0,1-.9-.9A1.593,1.593,0,0,0-105.651,100.331Zm13.545,10.062-2.709,5.676,2.709-5.805Zm-18.576,21.156c0,.129-.129.258-.129.387v-.129C-110.811,131.678-110.682,131.678-110.682,131.549Zm18.705-21.543v.129h-.129Zm0,0v.129h-.129Zm-18.576,19.866c0-.129.129-.258.129-.516C-110.424,129.614-110.553,129.743-110.553,129.872Zm.516,11.868a.45.45,0,0,1,.129.258C-109.908,141.869-110.037,141.869-110.037,141.74Zm4-42.7a.126.126,0,0,0-.129.129Zm91.977,4.128c-.516-6.45-9.8,5.16-10.32,5.547a24.484,24.484,0,0,1-4.773,3.354c-1.806.774-3.483,2.58-5.289,2.838a9.444,9.444,0,0,1-4.644-.129c-2.193-1.161.129-5.16.774-6.966.129-.258-.387-.129-.129-.9l.774-.516,2.322-2.451c2.193-2.322,5.16-3.354,7.482-5.418a3.846,3.846,0,0,0,1.548-2.193c.516-4.128-5.289-4.257-7.74-2.58-3.87,2.322-6.321,6.063-9.03,9.159l-4.257,4.386c-1.677,1.935-4,3.612-5.289,5.934-.516.774-.516,1.677-1.29,2.58a15,15,0,0,0-2.322,2.58c-1.548,1.935-2.967,4-4.386,6.063.129-1.29-.9-10.836-1.419-16.125,0,1.548.129,3.225.129,3.483l-.258-3.87v-.129a40.581,40.581,0,0,0-1.161-6.708l.387.9a6.138,6.138,0,0,0-.129-2.064c-.129-.387-.774-.258-.645.129-.387-.774.258-1.032-.516-1.935-1.032-1.419-3.1-1.29-4.515-.774a9.8,9.8,0,0,0-2.709,1.806c-1.29.774-2.58,1.032-3.1,2.967-.387,1.548,1.935,8.9,1.548,9.546l.129-.129a5.785,5.785,0,0,1,.129,1.419c-.129,0-.129-.258-.129-.387a14.017,14.017,0,0,0-.645,1.806c-.387,1.806,0,2.838.129,4.515a20.71,20.71,0,0,1,0,4,4.6,4.6,0,0,0,.387,2.064,12.559,12.559,0,0,0,.129,2.064c-.129,1.29-1.032,2.838-1.032,4.386-.258,4.128-.516,9.675,2.967,12.255,2.451,1.806,5.934,2.322,7.869-.645a10.078,10.078,0,0,0,1.161-4.386,28.08,28.08,0,0,1,4.386-10.32c3.87-6.321,9.288-10.965,13.545-16.9-.387,12.9,15.867,8.514,21.414,2.193.9-.9,1.548-2.064,2.451-2.967a30.965,30.965,0,0,0,4.9-5.16C-14.706,104.846-13.8,104.072-14.061,103.169Zm-48.891,5.805c-.129,3.1-.258,6.192-.645,9.159.129-2.451-.258-5.289-.129-7.869a34.509,34.509,0,0,0-.129-6.321,11.043,11.043,0,0,0-.645-2.967c-.129-.516-.9-1.29-.9-1.806,0-.387,1.161,1.29,1.29,1.419a6.889,6.889,0,0,1,.645,2.322A23.6,23.6,0,0,1-62.952,108.974Zm-.774,11.223c-.129,0-.258-.129-.129-.516C-63.6,119.681-63.6,119.81-63.726,120.2Zm1.935-3.225v-1.935A4.886,4.886,0,0,1-61.791,116.972Zm-.387-10.32v-1.935C-62.307,104.717-62.178,105.491-62.178,106.652Zm.129,1.548c-.129-.129-.129-.129-.129-.258v-.258C-62.178,107.942-62.049,108.071-62.049,108.2Zm87.978-6.063c0,.129,0,.129-.129,0v-.129c-2.064-3.483-4.773,1.29-5.934,2.967-2.193,2.967-4.257,5.805-6.579,8.514a70.407,70.407,0,0,0-5.547,7.1,4,4,0,0,1-.258.9c-.516.774-1.29,1.419-1.935,2.193-1.161,1.161-2.322,2.451-3.612,3.612-1.935,1.806-12.771,12-14.19,5.418-.774-3.225.258-7.224.9-10.32.387-1.677.774-3.225,1.032-4.9.258-1.29-.129-2.58.516-3.87.387-.774.516-.645,1.419-.9l2.193-.774a23.546,23.546,0,0,0,4.128-1.806,41.962,41.962,0,0,0,5.418-4c4-3.354,8.256-7.353,9.933-12.384.9-2.838,1.032-5.934-.774-8.385C10.836,83.174,8,82.013,5.418,81.5c-6.966-1.29-12.255,2.709-16.254,8A51.811,51.811,0,0,0-20.9,110.651c-.9,3.741-1.419,7.482-2.064,11.352s-1.032,7.482,1.032,11.094c-.129-1.29-.387-2.451-.387-3.612,0-.645.258-1.29.258-1.806,0-.258-.258-1.032-.258-1.419a14,14,0,0,1,.516-3.225c.129-1.161,0-2.322.129-3.483a11.091,11.091,0,0,1,1.161-3.483c.387-1.032.516-1.935.9-2.967.387-.9.645-1.935,1.032-2.967a12.211,12.211,0,0,1,1.161-2.193c-.387,1.161-1.161,2.193-1.419,3.225-.387,1.548-.129,3.225-.258,4.773-.258,1.677-.774,3.354-1.032,5.16-.258,1.677-1.032,3.225-1.29,4.9-.258,1.548-.774,2.709-.645,4.257a15.88,15.88,0,0,0,.258,2.58,4.751,4.751,0,0,0,1.419,2.451,17.264,17.264,0,0,0,8.514,5.547,8.387,8.387,0,0,0,6.579-.645,34.173,34.173,0,0,0,8.127-6.708c2.193-2.451,3.87-5.16,5.805-7.74,1.806-2.322,4-4.515,5.8-6.837l6.966-9.03,4-5.289C26.058,103.814,26.445,103.169,25.929,102.137Zm-31.992,1.419a1,1,0,0,0,.129-.387C-4,99.041-2.58,94.655.129,90.656l2.322-3.1A5.991,5.991,0,0,1,4.773,85.5c1.935-.387,2.451,2.967,2.322,4.257l-.516,2.709c-.129.774.129,1.29,0,1.935-.258.774-.9,1.161-1.29,1.806L3.1,99.041A37.289,37.289,0,0,1-7.74,107.684C-7.095,106.265-6.708,104.846-6.063,103.556Zm56.5-1.29c-.258-1.677-2.064-1.161-2.967-.516-1.161.774-7.611,9.288-7.1,9.933a1.088,1.088,0,0,0,.9-.258c-1.806,2.193-5.16,4.644-7.611,6.579-1.419,1.161-4.9,4.386-6.966,3.354-4.386-2.193,4.515-17.673,4.128-17.8s-3.612,7.1-4.257,8.772A66.613,66.613,0,0,1,32.637,99.3c-.129.387-.516,1.032-.258,1.032.258.129,2.193-2.58,1.806-2.838a.776.776,0,0,0-.516.129c.387-.387,1.032-.516,1.032-1.29,0-1.29-2.967-2.58-4-2.967-2.451-1.032-4.9-1.29-6.837,0-2.58,1.548-3.1,4.644-4.128,7.353-.258.774-2.709,9.933-2.193,10.062.258-.129.258-.258.387-.516l-.387,2.322c-.129,0,.129-.645-.129-.645-1.032,0-.774,4.644-.645,5.289.516,2.322,2.322,4,3.741,5.934a10.432,10.432,0,0,0,2.709,3.1c1.548,1.161.516,0,1.548.516H24.51c-.129.774,4.773,2.064,5.805,1.935,4.515-1.032,7.74-6.579,10.32-10.062,2.451-3.1,4.515-6.192,6.708-9.417C48.633,107.555,50.955,104.717,50.439,102.266ZM27.864,86.012c.258.387-.129.9.774,1.419.9.387,1.419-.129,2.193-.387,1.548-.645,2.709-2.322,3.87-3.354.387-.258-.387-.129-.387-.129,1.677-1.548.258.258,1.806-.645,1.548-1.032,1.806-2.709,3.1-4.128a9.056,9.056,0,0,0-3.741,2.838,12.436,12.436,0,0,1-3.612,3.354,14,14,0,0,0,3.612-4.386,4.633,4.633,0,0,1,1.29-.9c-.387-.387-.387-.774.129-1.161.387-.645,1.161-.9,1.548-1.548.645-.9.516-2.064,1.29-2.967.645-.516,1.548-.9,2.064-1.419,1.161-1.032,2.451-2.967,1.935-4.644a9.111,9.111,0,0,0-3.225-4.386A7.047,7.047,0,0,0,34.7,63.05c-.387.129-1.935.516-1.419,1.032.129.258.258.258.516.258-1.161.9-3.1,2.451-.387,3.483-.258.258,0,1.419,0,1.548a53.355,53.355,0,0,1-3.1,8l1.548-2.322a30,30,0,0,1-3.1,5.289c.774-1.677-.774.258-.774.645-1.419-.645-1.032,3.354-.9,3.741A11.344,11.344,0,0,0,27.864,86.012Zm-2.451,30.7v.129l-.258.774.258-1.032C25.542,116.456,25.542,116.456,25.413,116.714ZM29.67,78.4a3.193,3.193,0,0,0,.516-.774Zm-1.29,2.451c0,.129,0,.129-.129.258a.126.126,0,0,0-.129-.129C28.251,80.981,28.251,80.981,28.38,80.852ZM142.8,100.331c-2.709-1.806-10.578,16.383-11.868,18.705-4.773,8.9-9.675,17.8-15.093,26.316a79.159,79.159,0,0,1-9.03,12.513c-1.29,1.419-3.483,4.257-5.676,4.386-6.966.387-1.548-15.609-3.1-18.189a32.156,32.156,0,0,0-1.032,3.741,44.85,44.85,0,0,1,.645-4.644,15.078,15.078,0,0,0,.774-2.58l.774-4c.645-2.838,1.29-5.676,2.064-8.514,1.419-5.934,3.1-11.868,4.773-17.8.645-2.064,1.032-4.773,2.064-6.708,1.161-2.193,3.354-4.128,4.9-6.192,3.354-4.515,6.45-9.288,9.675-13.932a128.162,128.162,0,0,0,7.611-12.771c1.548-3.225,4.386-5.676,6.321-9.03,4.644-8.514,11.868-20.9,8.256-30.96-1.677-4.9-7.482-8.772-12.255-5.547-3.741,2.709-6.45,7.224-8.772,11.094-.645,1.032-7.1,12.384-6.966,12.384.129.129.774-1.032,1.29-1.806-1.677,3.1-3.1,6.192-4.644,9.288l.9-2.58c-.645,0-3.354,6.321-3.741,6.966-1.419,2.838-2.58,5.676-3.87,8.514a134.636,134.636,0,0,0-6.837,18.189c-1.677,6.321-3.87,12.384-5.805,18.576-1.032,3.1-1.677,6.45-3.1,9.417-1.677,3.1-3.87,6.192-5.805,9.159A158.676,158.676,0,0,1,73.143,141.1c-2.064,2.451-6.192,8-9.933,7.611-7.353-.9-.774-27.219-1.161-27.219s-.645,1.161-.9,2.193a13.244,13.244,0,0,1,.645-3.1c0,.645.516-.9.516-1.032l1.032-3.87c.774-2.967,1.548-5.805,2.451-8.772,1.161-4.515,4.773-8,7.353-11.868A266.63,266.63,0,0,0,88.107,70.4c.645-1.548,1.677-2.064,2.709-3.354a64.029,64.029,0,0,0,4.515-7.482,127.3,127.3,0,0,0,7.353-15.222c2.967-7.224,7.74-17.157,2.451-24.51-2.322-3.225-6.708-5.16-10.32-2.967-2.451,1.548-4.386,4.128-6.063,6.321-.774,1.032-1.548,2.451-2.451,3.87l-.258.516a7.089,7.089,0,0,1-.9,1.161v.129a.126.126,0,0,0-.129.129c-1.419,2.322-2.967,4.9-4.257,7.353A19.848,19.848,0,0,1,81.786,33.9c-.645,0-3.612,5.934-4,6.579-1.806,2.838-3.225,5.934-4.773,8.9a114.28,114.28,0,0,0-6.837,16.512c-1.806,5.547-4,10.965-5.934,16.512-1.29,3.354-2.451,6.708-3.483,10.191-.774,2.451-2.58,6.192-2.193,8.772h.258a30.118,30.118,0,0,0-.9,3.225c.129-.9.129-1.806.258-2.193-.645.9-.645,4-.645,4.257-2.322,8.9-4.773,17.544-5.289,26.832-.516,7.611-.129,19.479,8.385,22.7,5.031,1.935,9.288-.645,13.029-4,7.611-6.708,13.674-15.609,19.221-23.994A8.517,8.517,0,0,0,88.752,130c-1.548,8.514-3.612,17.286-2.58,26.187.645,6.321,3.354,13.416,10.449,14.448a8.972,8.972,0,0,0,6.192-1.548C110.682,163.8,116.1,153.737,121.131,146c5.16-8.256,10.062-16.641,14.448-25.413,1.548-2.967,2.709-6.192,4.386-9.159C140.868,109.877,145.641,102.266,142.8,100.331ZM71.079,89.237a4.035,4.035,0,0,0,.645-1.29c-.516.774-.516.516,0-.645l.774-2.193,1.161-3.483c.9-2.838,1.935-5.676,2.967-8.514,1.806-5.289,3.483-10.578,5.418-15.867,2.064-5.805,4.257-11.61,6.837-17.286,2.193-5.031,4.515-10.578,8.127-14.835,1.419-1.806,3.225-3.1,3.87.258,1.032,4.9-2.967,12.255-4.9,16.641-2.451,5.547-5.16,11.094-7.869,16.512l-4.515,8.256c-1.29,2.322-3.225,4.773-4.128,7.224,1.032-2.322,3.225-5.16,4.515-7.224L89.4,56.342A183.5,183.5,0,0,0,98.685,36.6C91.719,55.31,81.27,72.983,70.821,90.011l.258-.516Zm41.667-.516c2.967-9.288,5.805-18.576,9.417-27.735,1.677-4.644,3.612-9.417,5.676-13.932,2.064-4.644,4.128-9.8,7.482-13.674.645-.9,1.419-2.064,2.58-1.935,4.128.645-.774,11.481-1.548,13.416-2.193,5.16-4.773,10.062-7.353,15.093-1.29,2.451-2.58,4.9-4,7.353-1.161,1.806-2.967,4.128-3.612,6.192a24.283,24.283,0,0,1,2.064-2.967l2.58-4.644,5.676-10.578c2.58-5.16,6.321-10.965,7.611-17.028-1.548,6.837-5.676,13.674-8.514,19.35-4,7.611-8.256,15.093-12.642,22.446.258-.387-.258.645-2.451,4l-.129.129-.129.129a.126.126,0,0,0,.129-.129l-.129.129Zm-10.062,20.64a174.724,174.724,0,0,1,6.579-20.124c-4,14.577-9.159,28.9-12.126,43.6C98.685,125.1,100.62,117.23,102.684,109.361ZM54.825,114c-.129.387-.258.387-.258.387-1.419,3.612-1.419,8.256-2.064,12.126-.258,1.548-.774,2.064-.9,3.1,0-.516.129-1.161.129-1.935l-.387,2.064a97.819,97.819,0,0,1,1.677-12.126c.387-2.838,1.032-5.547,1.548-5.547C54.825,112.07,54.954,113.876,54.825,114ZM75.207,53.891q1.742-4.063,3.87-8.127c1.161-2.193,3.354-4.128,4.644-6.45-2.58,5.16-5.934,9.933-8.643,14.964C74.949,54.536,74.82,54.665,75.207,53.891ZM95.46,26.414c.774-1.161,2.193-3.612,3.741-3.612.129,0,.258.129.387.129-2.322.516-6.192,6.837-8.127,10.578A43.2,43.2,0,0,1,95.46,26.414Zm-.387,119.841a5.587,5.587,0,0,0-.129.645,8.977,8.977,0,0,1,.258-2.064C95.2,145.223,95.073,145.739,95.073,146.255ZM53.019,118.262a20.028,20.028,0,0,0-.516,2.709ZM89.01,128.711a1.071,1.071,0,0,1,.258-1.032Zm-3.741-100.1L86.3,27.059l-.258.516Zm31.089,54.309c-.129.387-.258.387-.387.645Zm-64.371,41.8c0-.258.129-.774.129-1.161C52.116,123.938,51.987,124.325,51.987,124.712Zm.387-2.58v0Zm.129-1.161c0,.258-.129.387-.129.516Zm-.258,2.193c0,.129-.129.258-.129.387C52.116,123.422,52.245,123.293,52.245,123.164Zm63.6-39.474.129-.129A.126.126,0,0,0,115.842,83.69Zm74.82,18.447c0,.129,0,.129-.129,0v-.129c-2.064-3.483-4.773,1.29-5.934,2.967-2.193,2.967-4.257,5.805-6.579,8.514a70.408,70.408,0,0,0-5.547,7.1,4,4,0,0,1-.258.9c-.516.774-1.29,1.419-1.935,2.193-1.161,1.161-2.322,2.451-3.612,3.612-1.935,1.806-12.771,12-14.19,5.418-.774-3.225.258-7.224.9-10.32.387-1.677.774-3.225,1.032-4.9.258-1.29-.129-2.58.516-3.87.387-.774.516-.645,1.419-.9l2.193-.774a23.546,23.546,0,0,0,4.128-1.806,41.962,41.962,0,0,0,5.418-4c4-3.354,8.256-7.353,9.933-12.384.9-2.838,1.032-5.934-.774-8.385-1.677-2.193-4.515-3.354-7.1-3.87-6.966-1.29-12.255,2.709-16.254,8a51.811,51.811,0,0,0-10.062,21.156c-.9,3.741-1.419,7.482-2.064,11.352s-1.032,7.482,1.032,11.094c-.129-1.29-.387-2.451-.387-3.612,0-.645.258-1.29.258-1.806,0-.258-.258-1.032-.258-1.419a14,14,0,0,1,.516-3.225c.129-1.161,0-2.322.129-3.483a11.091,11.091,0,0,1,1.161-3.483c.387-1.032.516-1.935.9-2.967.387-.9.645-1.935,1.032-2.967a12.211,12.211,0,0,1,1.161-2.193c-.387,1.161-1.161,2.193-1.419,3.225-.387,1.548-.129,3.225-.258,4.773-.258,1.677-.774,3.354-1.032,5.16-.258,1.677-1.032,3.225-1.29,4.9-.258,1.548-.774,2.709-.645,4.257a15.881,15.881,0,0,0,.258,2.58,4.751,4.751,0,0,0,1.419,2.451,17.264,17.264,0,0,0,8.514,5.547,8.387,8.387,0,0,0,6.579-.645,34.173,34.173,0,0,0,8.127-6.708c2.193-2.451,3.87-5.16,5.8-7.74,1.806-2.322,4-4.515,5.8-6.837l6.966-9.03,4-5.289C190.791,103.814,191.178,103.169,190.662,102.137Zm-31.992,1.419a1,1,0,0,0,.129-.387c1.935-4.128,3.354-8.514,6.063-12.513l2.322-3.1a5.991,5.991,0,0,1,2.322-2.064c1.935-.387,2.451,2.967,2.322,4.257l-.516,2.709c-.129.774.129,1.29,0,1.935-.258.774-.9,1.161-1.29,1.806l-2.193,2.838a37.289,37.289,0,0,1-10.836,8.643C157.638,106.265,158.025,104.846,158.67,103.556Zm80.367.129c-.387-1.806-1.419-2.064-2.709-1.548-2.451,1.161-4.9,3.741-7.224,5.289a179.412,179.412,0,0,1-16.254,8.9,5.073,5.073,0,0,0-.258-.774c.129.645,0,.9-.129,1.032-1.29-5.547-2.58-11.094-3.612-16.77.516,2.451,1.677,6.579,2.58,10.062-1.161-5.418-2.58-12.126-2.451-12.126-.258.129-.258.387-.258.645a17.122,17.122,0,0,1-.387-5.16c.129-1.935,1.161-3.612,1.806-5.418-.129.9-.387,2.064-.387,2.064.774.129,1.29-4.644,1.29-5.16-.129-.774-1.806-3.225-1.806-2.58-3.483-3.225-10.32,3.87-11.352,6.966a15.539,15.539,0,0,0-.645,6.45,25.4,25.4,0,0,0,1.419,6.192c.387,1.548-.129,2.58,0,4.257a72.429,72.429,0,0,0,1.677,7.611c.516,1.935,2.193,5.805,1.806,7.611-.258,1.806-4.128,3.354-5.8,4.386-2.193,1.419-4.386,3.1-6.579,4.773-3.87,2.967-8,6.708-9.546,11.481-.258.645-1.161,3.483-.258,4a18.459,18.459,0,0,0,.645-2.322c-1.677,8.514,6.708,12.642,14.577,12.771,8.9.258,15.093-4.9,18.189-12.9a27.684,27.684,0,0,0,1.548-10.707,42.677,42.677,0,0,0-.645-7.1c-.258-2.064-.516-1.935.9-3.1a23.589,23.589,0,0,1,3.612-1.806,98.96,98.96,0,0,0,11.61-7.482c2.709-1.935,9.159-5.289,8.643-9.417Zm-52.116,44.376c-3.354-1.032,0-6.321,1.161-8,1.935-2.58,4.773-4.515,7.353-6.321l3.87-2.58c.387-.258,2.838-2.193,2.064-1.935l1.548-.9-.9.774a3.233,3.233,0,0,0,.9-.516,28.346,28.346,0,0,1-.774,9.288c-.129.516-2.58,5.676-3.612,6.708l.645-.516a14.693,14.693,0,0,1-4,3.483c0-.129,1.161-.9,1.032-1.032l-3.612,1.419C190.791,148.319,188.727,148.706,186.921,148.061Zm16.254,3.741a27.687,27.687,0,0,1-10.062,2.193c6.321-.387,12.9-3.483,16.641-8.772A13.065,13.065,0,0,1,203.175,151.8Zm9.417-36.636a31.176,31.176,0,0,0-.774-3.612A33.131,33.131,0,0,0,212.592,115.166Zm1.677,13.416a.967.967,0,0,1-.129-.645A5.587,5.587,0,0,0,214.269,128.582Z" transform="translate(-606 2375.035)" fill="#343432"/>
    <path id="Path_52" data-name="Path 52" d="M-94.423-4.23q.047-3.9.235-12.126.094-7.426-.329-12.784a6.5,6.5,0,0,1,.752.188,5.01,5.01,0,0,1,1.927,2.021,20.042,20.042,0,0,1,2.35,9.447A20.7,20.7,0,0,1-91.133-7.426Q-92.4-4.7-94.423-4.23Zm-4.089-26.179a127.463,127.463,0,0,1,.47,14.006q-.047,1.6-.117,4.488t-.118,5.24q-.047,2.35-.047,4.418v.141A1.857,1.857,0,0,0-97.76-.752,1.857,1.857,0,0,0-96.4-.188a.978.978,0,0,0,.376-.047A7.341,7.341,0,0,0-91.039-1.6a10.98,10.98,0,0,0,3.384-4.183,24.015,24.015,0,0,0,2.021-11.844A24.455,24.455,0,0,0-88.5-28.905,8.813,8.813,0,0,0-92.12-32.43a5.979,5.979,0,0,0-5.217.047.512.512,0,0,1-.188.094.5.5,0,0,0-.188.094A1.82,1.82,0,0,0-98.512-30.409ZM-71.44-.094a38.671,38.671,0,0,0,6.392.047,1.829,1.829,0,0,0,1.246-.8A1.91,1.91,0,0,0-63.5-2.3a1.828,1.828,0,0,0-.8-1.246,1.826,1.826,0,0,0-1.41-.305,14.717,14.717,0,0,1-3.619.047q0-1.974.094-5.57t.094-4.677q1.5.094,2.162.094a1.857,1.857,0,0,0,1.363-.564,1.857,1.857,0,0,0,.564-1.363,1.857,1.857,0,0,0-.564-1.363,1.857,1.857,0,0,0-1.363-.564q-.611,0-2.115-.094Q-69-24.158-69.372-29q1.833.141,3.619.141a1.857,1.857,0,0,0,1.363-.564,1.857,1.857,0,0,0,.564-1.363,1.857,1.857,0,0,0-.564-1.363,1.857,1.857,0,0,0-1.363-.564q-.846,0-5.546-.235a1.812,1.812,0,0,0-1.386.493,1.908,1.908,0,0,0-.634,1.34v.188a2.8,2.8,0,0,0-.047.611,123.415,123.415,0,0,1,.423,13.865q0,1.786-.118,6.533t-.118,7.379a1.492,1.492,0,0,0-.094.423,1.812,1.812,0,0,0,.493,1.387A1.908,1.908,0,0,0-71.44-.094Zm53.2-25.192A6.23,6.23,0,0,0-18.4-29.4a5.215,5.215,0,0,0-2.562-2.8,5.033,5.033,0,0,0-3.737-.353,6.658,6.658,0,0,0-3.454,2.327q-3.572,4.465-3.2,8.46a10.627,10.627,0,0,0,3.2,6.2,31.952,31.952,0,0,0,2.35,2.3q.282.235.705.635t.775.728q.352.329.681.658A6.727,6.727,0,0,1-21.526-7.8a3.383,3.383,0,0,1-.611,2.139,4.838,4.838,0,0,1-1.88,1.716,2.38,2.38,0,0,1-1.786.329,1.986,1.986,0,0,1-1.175-1.269,6.278,6.278,0,0,1-.094-3.807,1.794,1.794,0,0,0-.235-1.434A1.891,1.891,0,0,0-28.529-11a1.794,1.794,0,0,0-1.434.235,1.891,1.891,0,0,0-.869,1.222,10.067,10.067,0,0,0,.282,6.157A5.465,5.465,0,0,0-26.79.094a5.724,5.724,0,0,0,4.512-.611,8.837,8.837,0,0,0,3.455-3.149,6.6,6.6,0,0,0,1.1-4.512q-.282-2.773-3.2-5.781-.7-.752-2.3-2.162-1.457-1.363-2.115-2.068a6.779,6.779,0,0,1-2.162-3.948q-.282-2.4,2.35-5.687,1.316-1.551,2.491-.893,1.222.611.7,2.491a1.849,1.849,0,0,0,.212,1.434,1.975,1.975,0,0,0,1.151.917,1.916,1.916,0,0,0,1.457-.212A1.791,1.791,0,0,0-18.236-25.286ZM9.353-22.043v-.047q-.893-6.016-3.1-8.742-2.444-3.1-5.828-2.3a7.477,7.477,0,0,0-4.583,3.854,15.344,15.344,0,0,0-2,7A62.7,62.7,0,0,0-5.5-8.789,21.382,21.382,0,0,0-3.854-3.572,6.358,6.358,0,0,0-.47-.188a5.142,5.142,0,0,0,5.5-.987A10.96,10.96,0,0,0,8.178-6.251a35.226,35.226,0,0,0,1.175-15.6Zm-3.807.658A31.537,31.537,0,0,1,4.512-7.52,7.716,7.716,0,0,1,2.585-4.089a1.678,1.678,0,0,1-1.692.282,3.207,3.207,0,0,1-1.316-1.5A15.814,15.814,0,0,1-1.692-9.494,62.284,62.284,0,0,1-2.3-22.137,10.487,10.487,0,0,1-.963-27.1q1.2-2,2.374-2.28a1.82,1.82,0,0,1,1.786.893q1.6,2.068,2.3,6.956A.192.192,0,0,1,5.546-21.385Zm19.881,5.264q.188-8.836.188-13.207a5.057,5.057,0,0,1,3.5,2.021,6.946,6.946,0,0,1,1.292,4.089,7.72,7.72,0,0,1-1.246,4.441A6.192,6.192,0,0,1,25.427-16.121ZM21.808-30.785q0,4.418-.211,14.03T21.385-2.068a1.857,1.857,0,0,0,.564,1.363,1.857,1.857,0,0,0,1.363.564,1.857,1.857,0,0,0,1.363-.564,1.857,1.857,0,0,0,.564-1.363q0-3.337.094-10.105a10.021,10.021,0,0,0,6.627-3.948,11.528,11.528,0,0,0,2.3-7.144A10.757,10.757,0,0,0,31.3-30.644q-2.867-3.055-7.849-2.538a1.767,1.767,0,0,0-1.316.682,1.845,1.845,0,0,0-.423,1.433.192.192,0,0,1,.047.141A.192.192,0,0,0,21.808-30.785Zm33.511.282q0,7.99.047,11.985a36.254,36.254,0,0,0-4.559.282q0-7.379-.235-12.6a1.908,1.908,0,0,0-.635-1.34,1.812,1.812,0,0,0-1.386-.493,1.908,1.908,0,0,0-1.34.634,1.812,1.812,0,0,0-.493,1.387q.188,4.324.211,8.977t-.047,10.716q-.071,6.063-.07,8.977a1.857,1.857,0,0,0,.564,1.363,1.857,1.857,0,0,0,1.363.564A1.857,1.857,0,0,0,50.1-.611a1.857,1.857,0,0,0,.564-1.363q0-4.136.094-12.408,4.042-.329,4.606-.282.047,4.23.047,12.69a1.857,1.857,0,0,0,.564,1.363,1.857,1.857,0,0,0,1.363.564A1.857,1.857,0,0,0,58.7-.611a1.857,1.857,0,0,0,.564-1.363q0-4.794-.047-14.288T59.173-30.5a1.857,1.857,0,0,0-.564-1.363,1.857,1.857,0,0,0-1.363-.564,1.857,1.857,0,0,0-1.363.564A1.857,1.857,0,0,0,55.319-30.5Zm16.168-.376q.282,6.392.282,28.952a1.857,1.857,0,0,0,.564,1.363A1.857,1.857,0,0,0,73.7,0a1.857,1.857,0,0,0,1.363-.564,1.857,1.857,0,0,0,.564-1.363q0-22.7-.282-29.14a1.908,1.908,0,0,0-.635-1.34A1.812,1.812,0,0,0,73.32-32.9a1.908,1.908,0,0,0-1.34.635A1.812,1.812,0,0,0,71.487-30.879ZM89.817-.094a38.671,38.671,0,0,0,6.392.047,1.829,1.829,0,0,0,1.246-.8A1.91,1.91,0,0,0,97.76-2.3a1.828,1.828,0,0,0-.8-1.246,1.826,1.826,0,0,0-1.41-.305,14.717,14.717,0,0,1-3.619.047q0-1.974.094-5.57t.094-4.677q1.5.094,2.162.094a1.857,1.857,0,0,0,1.363-.564,1.857,1.857,0,0,0,.564-1.363,1.857,1.857,0,0,0-.564-1.363,1.857,1.857,0,0,0-1.363-.564q-.611,0-2.115-.094.094-6.251-.282-11.092,1.833.141,3.619.141a1.857,1.857,0,0,0,1.363-.564,1.857,1.857,0,0,0,.564-1.363,1.857,1.857,0,0,0-.564-1.363,1.857,1.857,0,0,0-1.363-.564q-.846,0-5.546-.235a1.812,1.812,0,0,0-1.386.493,1.908,1.908,0,0,0-.634,1.34v.188a2.8,2.8,0,0,0-.047.611,123.415,123.415,0,0,1,.423,13.865q0,1.786-.118,6.533t-.118,7.379a1.492,1.492,0,0,0-.094.423,1.812,1.812,0,0,0,.493,1.387A1.908,1.908,0,0,0,89.817-.094Z" transform="translate(-613 2608.035)" fill="#343432"/>
  </g>
</svg>
