<svg xmlns="http://www.w3.org/2000/svg" width="240.371" height="52.79" viewBox="0 0 240.371 52.79">
  <g id="Group_67" data-name="Group 67" transform="translate(1238.708 -2188.34)">
    <path id="Path_49" data-name="Path 49" d="M-89.778,6.591a5.593,5.593,0,0,1-3.978,0c-1.131-.624-.7-2.34-.468-3.354a40.062,40.062,0,0,1,2.106-6.2c.468-1.053.9-2.145,1.365-3.237.117-.234,1.131-2.769,1.092-2.769-.078,0-.195.117-.273.273,1.365-2.847,3.666-6.006,3.042-9.4-.273-1.443-1.287-2.886-2.886-2.847-1.365,0-2.613,1.014-3.549,1.872a32.516,32.516,0,0,0-4.563,5.265c-.156.195-.78,1.131-1.482,2.223.351-.585.819-1.131,1.209-1.677-1.638,2.3-3.081,4.719-4.485,7.137a92.3,92.3,0,0,1,4.407-10.53c.585-1.287,1.56-2.457,2.106-3.783a4.663,4.663,0,0,0-.741-4.485c-2.145-2.613-5.226,1.911-6.513,3.276a62.456,62.456,0,0,0-6.825,9.2c.273-.858.429-1.677.741-2.535.39-1.092.819-2.145,1.17-3.237.39-1.131.741-2.3,1.092-3.432a8.136,8.136,0,0,0,.468-3.861,6.33,6.33,0,0,0-1.17-2.73,3.276,3.276,0,0,0-3.588-.585,8.668,8.668,0,0,0-3,1.638c-.468.429-.9.858-1.326,1.326l-.39.546c-.234.312-.195.624-.312.9a18.584,18.584,0,0,0-1.326,2.457,4.642,4.642,0,0,0,.273,3.471c.312.429.819.741,1.287.351.273-.273.156-.546.195-.858a7.224,7.224,0,0,1,.312-1.248,15.6,15.6,0,0,1,3.159-5.3,4.633,4.633,0,0,1,2.145-1.521c1.17-.273,1.209.663,1.053,1.6l-.234,1.443v-.39c-1.131,4.212-3.315,8.112-4.8,12.168-.741,1.989-1.6,3.861-2.418,5.811a20.458,20.458,0,0,0-1.872,6.4,2.234,2.234,0,0,0,.7,1.95,1.505,1.505,0,0,0,2.184-.117,10.157,10.157,0,0,0,.819-2.145c.39-1.014.741-2.028,1.17-3a18.382,18.382,0,0,1,1.638-2.964c1.248-2.028,2.5-4.056,3.822-6.045,1.248-1.911,2.5-3.783,3.861-5.577a24.433,24.433,0,0,1,4.524-4.875c.273-.195,1.209-.936,1.6-.78.312.117,0,.7-.117,1.014a32.515,32.515,0,0,1-2.5,5.265c-2.262,3.822-4.6,8.112-5.46,12.519-.312,1.482-.312,2.964.858,4.095,1.209,1.131,1.638.156,2.028-.936a15.948,15.948,0,0,1,1.443-2.5c.663-1.092,1.287-2.223,1.989-3.354a11.946,11.946,0,0,1,1.248-1.95,19.72,19.72,0,0,0,2.067-2.691,31.574,31.574,0,0,1,4.485-5.421c.429-.39,1.4-1.4,2.067-1.248.819.195-.078,1.482-.039,1.989l.273-.546c-.234.7-.468,1.365-.741,2.028-.039-.039.117-.507.117-.507a12.155,12.155,0,0,0-1.092,2.028,31.911,31.911,0,0,0-1.716,3.7c-.429,1.17-.858,2.262-1.365,3.393l-.858,1.95c-.156.429-.624,1.365-.507,1.833.039,0,.078,0,.078-.039l-.195.7a4.475,4.475,0,0,0,.078-.546c-.156.117-.195.9-.195.9-.936,3.276-1.326,6.747.936,9.672a3.616,3.616,0,0,0,4.1,1.56A5.628,5.628,0,0,0-89.193,8.19c.39-.351,1.6-1.4,1.443-2.028C-87.867,5.538-89.388,6.474-89.778,6.591Zm-5.187-11.7c.351-.7.663-1.443.975-2.184A9.026,9.026,0,0,1-93.21-9.4c.117.039.117.156,0,.39a19.97,19.97,0,0,1-1.677,4.29c-.507,1.131-1.014,2.3-1.4,3.471A25.138,25.138,0,0,1-94.965-5.109ZM-112.242-16.77c.546-1.287.975-2.652,1.521-3.939a19.112,19.112,0,0,0,.7-1.794,28.042,28.042,0,0,1-1.911,5.421c-.819,1.677-1.56,3.393-2.262,5.148C-113.568-13.572-112.944-15.171-112.242-16.77ZM-99.762-11c-1.014,1.638-2.106,3.315-2.106,3.315A30.729,30.729,0,0,0-99.762-11Zm5.928-7.449-1.443,1.521A17.887,17.887,0,0,1-93.834-18.447ZM-96.6,0c-.117-.039-.117-.117,0-.273C-96.525-.234-96.525-.156-96.6,0Zm.936-16.458.078-.117v.039a1.242,1.242,0,0,1,.234-.312l.078-.078-.078.117-.039.039-.078.078-.039.039a.038.038,0,0,0,.039-.039l-.039.039-.039.078Zm-4.017,5.343.156-.234v.039Zm-.078.117.078-.117C-99.684-11.076-99.723-11.037-99.762-11Zm4.368-5.811.039-.039A.038.038,0,0,1-95.394-16.809ZM-74.1-9.594c-.078-.507-.624-.351-.9-.156-.351.234-2.3,2.808-2.145,3a.329.329,0,0,0,.273-.078,16.557,16.557,0,0,1-2.3,1.989c-.429.351-1.482,1.326-2.106,1.014C-82.6-4.485-79.911-9.165-80.028-9.2a16.945,16.945,0,0,0-1.287,2.652,20.139,20.139,0,0,1,1.833-3.939c-.039.117-.156.312-.078.312.078.039.663-.78.546-.858A.234.234,0,0,0-79.17-11c.117-.117.312-.156.312-.39,0-.39-.9-.78-1.209-.9a2.155,2.155,0,0,0-2.067,0c-.78.468-.936,1.4-1.248,2.223a17.246,17.246,0,0,0-.663,3.042c.078-.039.078-.078.117-.156l-.117.7c-.039,0,.039-.195-.039-.195-.312,0-.234,1.4-.195,1.6a5.164,5.164,0,0,0,1.131,1.794,3.154,3.154,0,0,0,.819.936c.468.351.156,0,.468.156h-.078c-.039.234,1.443.624,1.755.585,1.365-.312,2.34-1.989,3.12-3.042.741-.936,1.365-1.872,2.028-2.847C-74.646-8-73.944-8.853-74.1-9.594Zm-6.825-4.914c.078.117-.039.273.234.429.273.117.429-.039.663-.117a4.872,4.872,0,0,0,1.17-1.014c.117-.078-.117-.039-.117-.039.507-.468.078.078.546-.195.468-.312.546-.819.936-1.248a2.738,2.738,0,0,0-1.131.858,3.76,3.76,0,0,1-1.092,1.014,4.231,4.231,0,0,0,1.092-1.326,1.4,1.4,0,0,1,.39-.273c-.117-.117-.117-.234.039-.351.117-.2.351-.273.468-.468.195-.273.156-.624.39-.9.195-.156.468-.273.624-.429a1.522,1.522,0,0,0,.585-1.4,2.755,2.755,0,0,0-.975-1.326,2.13,2.13,0,0,0-1.755-.156c-.117.039-.585.156-.429.312.039.078.078.078.156.078-.351.273-.936.741-.117,1.053-.078.078,0,.429,0,.468a16.131,16.131,0,0,1-.936,2.418l.468-.7a9.069,9.069,0,0,1-.936,1.6c.234-.507-.234.078-.234.195-.429-.195-.312,1.014-.273,1.131A3.43,3.43,0,0,0-80.925-14.508Zm-.741,9.282v.039l-.078.234.078-.312C-81.627-5.3-81.627-5.3-81.666-5.226Zm1.287-11.583a.965.965,0,0,0,.156-.234Zm-.39.741c0,.039,0,.039-.039.078a.038.038,0,0,0-.039-.039C-80.808-16.029-80.808-16.029-80.769-16.068Zm34.593,5.889c-.819-.546-3.2,4.953-3.588,5.655-1.443,2.691-2.925,5.382-4.563,7.956a23.932,23.932,0,0,1-2.73,3.783c-.39.429-1.053,1.287-1.716,1.326-2.106.117-.468-4.719-.936-5.5a9.722,9.722,0,0,0-.312,1.131,13.559,13.559,0,0,1,.2-1.4,4.559,4.559,0,0,0,.234-.78L-59.358.78c.195-.858.39-1.716.624-2.574.429-1.794.936-3.588,1.443-5.382A12.194,12.194,0,0,1-56.667-9.2a16.408,16.408,0,0,1,1.482-1.872c1.014-1.365,1.95-2.808,2.925-4.212a38.747,38.747,0,0,0,2.3-3.861c.468-.975,1.326-1.716,1.911-2.73,1.4-2.574,3.588-6.318,2.5-9.36-.507-1.482-2.262-2.652-3.7-1.677a11.1,11.1,0,0,0-2.652,3.354c-.2.312-2.145,3.744-2.106,3.744.039.039.234-.312.39-.546-.507.936-.936,1.872-1.4,2.808l.273-.78a11.842,11.842,0,0,0-1.131,2.106c-.429.858-.78,1.716-1.17,2.574a40.7,40.7,0,0,0-2.067,5.5c-.507,1.911-1.17,3.744-1.755,5.616a24.3,24.3,0,0,1-.936,2.847c-.507.936-1.17,1.872-1.755,2.769a47.973,47.973,0,0,1-3.666,5.07c-.624.741-1.872,2.418-3,2.3-2.223-.273-.234-8.229-.351-8.229s-.195.351-.273.663a4,4,0,0,1,.195-.936c0,.195.156-.273.156-.312l.312-1.17c.234-.9.468-1.755.741-2.652.351-1.365,1.443-2.418,2.223-3.588a80.609,80.609,0,0,0,4.524-7.449c.195-.468.507-.624.819-1.014A19.358,19.358,0,0,0-60.528-22.5a38.486,38.486,0,0,0,2.223-4.6c.9-2.184,2.34-5.187.741-7.41a2.4,2.4,0,0,0-3.12-.9A7.749,7.749,0,0,0-62.517-33.5c-.234.312-.468.741-.741,1.17l-.078.156a2.143,2.143,0,0,1-.273.351v.039a.038.038,0,0,0-.039.039c-.429.7-.9,1.482-1.287,2.223a6,6,0,0,1,.312-.741,10.767,10.767,0,0,0-1.209,1.989c-.546.858-.975,1.794-1.443,2.691a34.55,34.55,0,0,0-2.067,4.992c-.546,1.677-1.209,3.315-1.794,4.992-.39,1.014-.741,2.028-1.053,3.081a7.182,7.182,0,0,0-.663,2.652h.078a9.107,9.107,0,0,0-.273.975c.039-.273.039-.546.078-.663a3.428,3.428,0,0,0-.195,1.287,40.918,40.918,0,0,0-1.6,8.112c-.156,2.3-.039,5.889,2.535,6.864,1.521.585,2.808-.195,3.939-1.209a35.967,35.967,0,0,0,5.811-7.254,2.575,2.575,0,0,0-.039.546c-.468,2.574-1.092,5.226-.78,7.917.195,1.911,1.014,4.056,3.159,4.368a2.712,2.712,0,0,0,1.872-.468c2.379-1.6,4.017-4.641,5.538-6.981,1.56-2.5,3.042-5.031,4.368-7.683.468-.9.819-1.872,1.326-2.769C-46.761-7.293-45.318-9.594-46.176-10.179ZM-67.86-13.533a1.22,1.22,0,0,0,.195-.39c-.156.234-.156.156,0-.195l.234-.663.351-1.053c.273-.858.585-1.716.9-2.574.546-1.6,1.053-3.2,1.638-4.8.624-1.755,1.287-3.51,2.067-5.226a17.931,17.931,0,0,1,2.457-4.485c.429-.546.975-.936,1.17.078.312,1.482-.9,3.7-1.482,5.031-.741,1.677-1.56,3.354-2.379,4.992l-1.365,2.5a17.462,17.462,0,0,0-1.248,2.184,20.591,20.591,0,0,1,1.365-2.184l1.638-3.159a55.477,55.477,0,0,0,2.808-5.967A94.862,94.862,0,0,1-67.938-13.3l.078-.156Zm12.6-.156c.9-2.808,1.755-5.616,2.847-8.385.507-1.4,1.092-2.847,1.716-4.212a16.373,16.373,0,0,1,2.262-4.134c.195-.273.429-.624.78-.585,1.248.195-.234,3.471-.468,4.056-.663,1.56-1.443,3.042-2.223,4.563-.39.741-.78,1.482-1.209,2.223a9.028,9.028,0,0,0-1.092,1.872,7.341,7.341,0,0,1,.624-.9l.78-1.4,1.716-3.2a22.758,22.758,0,0,0,2.3-5.148,27.406,27.406,0,0,1-2.574,5.85c-1.209,2.3-2.5,4.563-3.822,6.786a8.066,8.066,0,0,1-.741,1.209l-.039.039-.039.039a.038.038,0,0,0,.039-.039l-.039.039ZM-58.3-7.449a52.824,52.824,0,0,1,1.989-6.084C-57.525-9.126-59.085-4.8-59.982-.351-59.514-2.691-58.929-5.07-58.3-7.449Zm-14.469,1.4c-.039.117-.078.117-.078.117a18.955,18.955,0,0,0-.624,3.666c-.078.468-.234.624-.273.936,0-.156.039-.351.039-.585l-.117.624a29.574,29.574,0,0,1,.507-3.666c.117-.858.312-1.677.468-1.677C-72.774-6.63-72.735-6.084-72.774-6.045Zm6.162-18.174q.526-1.229,1.17-2.457c.351-.663,1.014-1.248,1.4-1.95-.78,1.56-1.794,3-2.613,4.524C-66.69-24.024-66.729-23.985-66.612-24.219Zm6.123-8.307c.234-.351.663-1.092,1.131-1.092.039,0,.078.039.117.039-.7.156-1.872,2.067-2.457,3.2A13.061,13.061,0,0,1-60.489-32.526Zm-.117,36.231a1.689,1.689,0,0,0-.039.195,2.714,2.714,0,0,1,.078-.624C-60.567,3.393-60.606,3.549-60.606,3.705ZM-73.32-4.758a6.053,6.053,0,0,0-.156.819ZM-62.439-1.6a.324.324,0,0,1,.078-.312ZM-63.57-31.863l.312-.468-.078.156Zm9.4,16.419c-.039.117-.078.117-.117.195ZM-73.632-2.808c0-.078.039-.234.039-.351C-73.593-3.042-73.632-2.925-73.632-2.808Zm.117-.78v0Zm.039-.351c0,.078-.039.117-.039.156Zm-.078.663c0,.039-.039.078-.039.117C-73.593-3.2-73.554-3.237-73.554-3.276ZM-54.327-15.21l.039-.039A.038.038,0,0,0-54.327-15.21Zm22.62,5.577c0,.039,0,.039-.039,0v-.039c-.624-1.053-1.443.39-1.794.9-.663.9-1.287,1.755-1.989,2.574a21.286,21.286,0,0,0-1.677,2.145,1.209,1.209,0,0,1-.078.273c-.156.234-.39.429-.585.663-.351.351-.7.741-1.092,1.092-.585.546-3.861,3.627-4.29,1.638a7.671,7.671,0,0,1,.273-3.12c.117-.507.234-.975.312-1.482.078-.39-.039-.78.156-1.17.117-.234.156-.195.429-.273l.663-.234a7.118,7.118,0,0,0,1.248-.546,12.686,12.686,0,0,0,1.638-1.209,9.04,9.04,0,0,0,3-3.744,2.769,2.769,0,0,0-.234-2.535,3.564,3.564,0,0,0-2.145-1.17c-2.106-.39-3.705.819-4.914,2.418a15.664,15.664,0,0,0-3.042,6.4c-.273,1.131-.429,2.262-.624,3.432a4.752,4.752,0,0,0,.312,3.354c-.039-.39-.117-.741-.117-1.092,0-.2.078-.39.078-.546,0-.078-.078-.312-.078-.429a4.234,4.234,0,0,1,.156-.975c.039-.351,0-.7.039-1.053a3.353,3.353,0,0,1,.351-1.053c.117-.312.156-.585.273-.9.117-.273.2-.585.312-.9a3.692,3.692,0,0,1,.351-.663c-.117.351-.351.663-.429.975a8.952,8.952,0,0,0-.078,1.443c-.078.507-.234,1.014-.312,1.56-.078.507-.312.975-.39,1.482a4.9,4.9,0,0,0-.195,1.287,4.8,4.8,0,0,0,.078.78,1.436,1.436,0,0,0,.429.741,5.219,5.219,0,0,0,2.574,1.677,2.536,2.536,0,0,0,1.989-.2A10.331,10.331,0,0,0-38.688-.156c.663-.741,1.17-1.56,1.755-2.34.546-.7,1.209-1.365,1.755-2.067l2.106-2.73,1.209-1.6C-31.668-9.126-31.551-9.321-31.707-9.633Zm-9.672.429a.3.3,0,0,0,.039-.117A25.92,25.92,0,0,1-39.507-13.1l.7-.936a1.811,1.811,0,0,1,.7-.624c.585-.117.741.9.7,1.287l-.156.819c-.039.234.039.39,0,.585-.078.234-.273.351-.39.546l-.663.858a11.273,11.273,0,0,1-3.276,2.613C-41.691-8.385-41.574-8.814-41.379-9.2ZM3.627-9.36s.039.039,0-.039c-.273-.858-1.989,1.482-2.184,1.716C.429-6.474-.585-5.226-1.638-4.056c-.429.468-1.95,2.574-2.691,2.418-.351-.078-.078-1.95-.078-1.95a.816.816,0,0,0-.156.234A29.421,29.421,0,0,1-2.73-8.073c.663-1.677,1.638-3.861,1.131-5.733-.585-2.145-2.808-1.053-3.861-.039A44.2,44.2,0,0,0-9.048-8.97l.78-1.053A27.55,27.55,0,0,0-9.945-7.137c.39-1.365.78-2.769,1.248-4.134.351-.936.936-1.911,1.209-2.886.312-1.248-.78-2.964-2.184-2.769-1.014.117-1.872,1.287-2.379,2.106-.624,1.014-1.365,1.95-1.989,2.925-.741,1.209-1.365,2.535-1.989,3.783-.546,1.014-.819,2.184-1.4,3.12a5.335,5.335,0,0,0-.078-1.131,5.835,5.835,0,0,1,.234-1.131c.117-.546.429-1.014.546-1.56.078-.273,0-.39.078-.663a1.8,1.8,0,0,1,.351-.585c.273-.39.624-.741.858-1.131.039-.078.117-.156.117-.234.156-.546-.234-.741-.429-1.014a6.841,6.841,0,0,0-.7-1.014c-.234-.195-.624-.429-.9-.312-.351.156-.195.351-.312.546a9.606,9.606,0,0,1-.663,1.053,13.986,13.986,0,0,0-.78,1.989,11.387,11.387,0,0,0-.936,4.212c.039,1.092-.273,1.989.546,2.964.39.468,1.911,1.482,2.3.78a1.976,1.976,0,0,0,.078-.507c.117-.39.39-.741.546-1.131.39-.78.741-1.6,1.17-2.418,1.092-2.067,1.911-4.056,3.2-6.045a18.336,18.336,0,0,1,1.326-1.716c.117-.117.7-.936.78-.9.624.039-.624,2.418-.741,2.847C-11.349-10.764-12.246-9.4-12.4-8a4.674,4.674,0,0,1-.039,1.053,4.747,4.747,0,0,0-.273,1.482,2.023,2.023,0,0,0,.624,1.209c1.248,1.209,1.755-.195,2.3-1.131A20.017,20.017,0,0,1-7.683-8.853c1.287-1.248,1.95-2.925,3.237-4.134-.195.429-1.287,3.081-1.248,3.12a.816.816,0,0,0,.156-.234c-.156.429-.312.819-.429,1.209-.078-.039.078-.351.039-.351-.234-.039-.936,2.145-.975,2.3a6.856,6.856,0,0,0-.39,2.34A14.911,14.911,0,0,0-7.176-2.34a4.5,4.5,0,0,0,.429,1.4c.078.195.624.741.624.663.039.078.039.156.117.2l-.039-.039C-6.123.2-4.485.741-4.212.7-2.847.663-1.482-1.17-.741-2.145.351-3.471,1.326-4.914,2.3-6.318,2.808-7.059,3.861-8.346,3.627-9.36Zm-14-2.574h.039a.561.561,0,0,0-.078.117c-.468.975-.7,2.106-1.092,3.159a9.826,9.826,0,0,0-.78,2.574,8.942,8.942,0,0,1,.546-2.73c.312-.936.78-1.833,1.17-2.73.156-.312,1.092-2.73.936-3.354.234.546-.468,2.379-.7,2.964v-.039Zm26.091,2.3c0,.039,0,.039-.039,0v-.039c-.624-1.053-1.443.39-1.794.9-.663.9-1.287,1.755-1.989,2.574a21.286,21.286,0,0,0-1.677,2.145,1.209,1.209,0,0,1-.078.273c-.156.234-.39.429-.585.663-.351.351-.7.741-1.092,1.092C7.878-1.482,4.6,1.6,4.173-.39a7.671,7.671,0,0,1,.273-3.12c.117-.507.234-.975.312-1.482.078-.39-.039-.78.156-1.17.117-.234.156-.195.429-.273l.663-.234a7.118,7.118,0,0,0,1.248-.546A12.686,12.686,0,0,0,8.892-8.424a9.04,9.04,0,0,0,3-3.744,2.769,2.769,0,0,0-.234-2.535,3.564,3.564,0,0,0-2.145-1.17c-2.106-.39-3.7.819-4.914,2.418a15.664,15.664,0,0,0-3.042,6.4C1.287-5.928,1.131-4.8.936-3.627A4.752,4.752,0,0,0,1.248-.273c-.039-.39-.117-.741-.117-1.092,0-.2.078-.39.078-.546,0-.078-.078-.312-.078-.429a4.234,4.234,0,0,1,.156-.975c.039-.351,0-.7.039-1.053a3.353,3.353,0,0,1,.351-1.053c.117-.312.156-.585.273-.9.117-.273.195-.585.312-.9a3.692,3.692,0,0,1,.351-.663c-.117.351-.351.663-.429.975A8.952,8.952,0,0,0,2.106-5.46c-.078.507-.234,1.014-.312,1.56-.078.507-.312.975-.39,1.482a4.9,4.9,0,0,0-.2,1.287,4.8,4.8,0,0,0,.078.78A1.436,1.436,0,0,0,1.716.39,5.219,5.219,0,0,0,4.29,2.067a2.536,2.536,0,0,0,1.989-.2A10.331,10.331,0,0,0,8.736-.156C9.4-.9,9.906-1.716,10.491-2.5c.546-.7,1.209-1.365,1.755-2.067l2.106-2.73,1.209-1.6C15.756-9.126,15.873-9.321,15.717-9.633ZM6.045-9.2a.3.3,0,0,0,.039-.117A25.92,25.92,0,0,1,7.917-13.1l.7-.936a1.811,1.811,0,0,1,.7-.624c.585-.117.741.9.7,1.287l-.156.819c-.039.234.039.39,0,.585-.078.234-.273.351-.39.546l-.663.858A11.273,11.273,0,0,1,5.538-7.956C5.733-8.385,5.85-8.814,6.045-9.2ZM28.9-9.477c-.234-1.014-1.17.351-1.365.585L25.389-6.006,23.283-3.237,22.152-1.794a11.552,11.552,0,0,0-.9,1.248c.078-.078.195-.078.312-.2-.585.624-2.73,2.574-3.12,2.106-.312-.39.546-2.028.663-2.418.429-1.131.819-2.3,1.287-3.393.507-1.131,1.092-2.262,1.56-3.393.468-1.209-.234-1.638-1.365-1.911-.507-.117-1.131-.117-1.716-.2a.038.038,0,0,0,.039.039,12.466,12.466,0,0,1,1.872.312c-.936-.273-2.106-.156-2.847-.351-.507-.117-.819-.117-.741-.7.078-.78.9-1.6,1.17-2.34,0,.039-.273.741-.234.741.2.078.507-1.014.507-1.17-.039-.195-.507-.78-.546-.546l.078.117c-1.872-1.287-4.095,1.365-3.7,3.276.078.273.234.429.351.741.078.234,0,.507.234.819a3.516,3.516,0,0,0,3.471.819A47.38,47.38,0,0,0,16.38-3.51l-.273.975c-.039-.039.117-.351.039-.351-.273-.039-.819,2.223-.858,2.418a4.278,4.278,0,0,0,.273,2.613,2.654,2.654,0,0,0,1.014,1.326,2.132,2.132,0,0,0,1.6.351c.195-.078.936-.585.741-.546l.273-.117c-.039.039-.078.078-.078.117a26.3,26.3,0,0,0,2.145-1.56,20.12,20.12,0,0,0,3.2-3.627c.936-1.326,1.911-2.652,2.808-3.978A13.657,13.657,0,0,0,28.392-7.8,2.92,2.92,0,0,0,28.9-9.477ZM17.238-4.8a19.1,19.1,0,0,1,.936-2.028c.078-.117.624-1.521.9-1.6a22.334,22.334,0,0,0-1.209,2.379l-.741,1.716A23.761,23.761,0,0,0,16.029-1.4,20.646,20.646,0,0,1,17.238-4.8ZM16.3,2.691a2.177,2.177,0,0,0,.975.78,2.315,2.315,0,0,1-.9-.546c.039,0,.039.039.039.078a6.262,6.262,0,0,1-.585-1.092A4.766,4.766,0,0,1,15.717.429a4.586,4.586,0,0,1,.117-1.053v.039a6.866,6.866,0,0,0-.078,1.56v.2a.121.121,0,0,1-.039-.078.3.3,0,0,0,.039.117v.039l.156.819L15.8,1.56c.078.234.273.663.468,1.092l-.039-.039c0,.039.039.078.078.117Zm1.092-12.87a1.888,1.888,0,0,0,.9.234,1.549,1.549,0,0,1-.78-.273,1.761,1.761,0,0,1-.273-.273A.481.481,0,0,0,17.394-10.179Zm4.1,3.042L20.67-5.421l.819-1.755Zm-5.616,6.4c0,.039-.039.078-.039.117V-.663C15.834-.7,15.873-.7,15.873-.741Zm5.655-6.513v.039h-.039Zm0,0v.039h-.039ZM15.912-1.248c0-.039.039-.078.039-.156C15.951-1.326,15.912-1.287,15.912-1.248Zm.156,3.588a.136.136,0,0,1,.039.078C16.107,2.379,16.068,2.379,16.068,2.34Zm1.209-12.909a.038.038,0,0,0-.039.039ZM45.084-9.321c-.156-1.95-2.964,1.56-3.12,1.677A7.4,7.4,0,0,1,40.521-6.63c-.546.234-1.053.78-1.6.858a2.855,2.855,0,0,1-1.4-.039c-.663-.351.039-1.56.234-2.106.039-.078-.117-.039-.039-.273l.234-.156.7-.741c.663-.7,1.56-1.014,2.262-1.638a1.163,1.163,0,0,0,.468-.663c.156-1.248-1.6-1.287-2.34-.78A12.242,12.242,0,0,0,36.309-9.4L35.022-8.073a11.685,11.685,0,0,0-1.6,1.794c-.156.234-.156.507-.39.78a4.535,4.535,0,0,0-.7.78c-.468.585-.9,1.209-1.326,1.833.039-.39-.273-3.276-.429-4.875,0,.468.039.975.039,1.053l-.078-1.17v-.039a12.269,12.269,0,0,0-.351-2.028l.117.273a1.856,1.856,0,0,0-.039-.624c-.039-.117-.234-.078-.195.039-.117-.234.078-.312-.156-.585a1.184,1.184,0,0,0-1.365-.234,2.961,2.961,0,0,0-.819.546c-.39.234-.78.312-.936.9-.117.468.585,2.691.468,2.886l.039-.039a1.749,1.749,0,0,1,.039.429c-.039,0-.039-.078-.039-.117a4.237,4.237,0,0,0-.195.546,3.986,3.986,0,0,0,.039,1.365,6.261,6.261,0,0,1,0,1.209,1.392,1.392,0,0,0,.117.624,3.8,3.8,0,0,0,.039.624A11.075,11.075,0,0,0,26.988-.78c-.078,1.248-.156,2.925.9,3.705a1.581,1.581,0,0,0,2.379-.2A3.047,3.047,0,0,0,30.615,1.4a8.489,8.489,0,0,1,1.326-3.12c1.17-1.911,2.808-3.315,4.1-5.109-.117,3.9,4.8,2.574,6.474.663.273-.273.468-.624.741-.9a9.361,9.361,0,0,0,1.482-1.56C44.889-8.814,45.162-9.048,45.084-9.321ZM30.3-7.566c-.039.936-.078,1.872-.195,2.769.039-.741-.078-1.6-.039-2.379a10.433,10.433,0,0,0-.039-1.911,3.339,3.339,0,0,0-.195-.9c-.039-.156-.273-.39-.273-.546,0-.117.351.39.39.429a2.083,2.083,0,0,1,.2.7A7.135,7.135,0,0,1,30.3-7.566Zm-.234,3.393c-.039,0-.078-.039-.039-.156C30.108-4.329,30.108-4.29,30.069-4.173Zm.585-.975v-.585A1.477,1.477,0,0,1,30.654-5.148Zm-.117-3.12v-.585C30.5-8.853,30.537-8.619,30.537-8.268Zm.039.468c-.039-.039-.039-.039-.039-.078v-.078C30.537-7.878,30.576-7.839,30.576-7.8Zm26.6-1.833c0,.039,0,.039-.039,0v-.039c-.624-1.053-1.443.39-1.794.9-.663.9-1.287,1.755-1.989,2.574a21.286,21.286,0,0,0-1.677,2.145,1.209,1.209,0,0,1-.078.273c-.156.234-.39.429-.585.663-.351.351-.7.741-1.092,1.092-.585.546-3.861,3.627-4.29,1.638A7.671,7.671,0,0,1,45.9-3.51c.117-.507.234-.975.312-1.482.078-.39-.039-.78.156-1.17.117-.234.156-.195.429-.273l.663-.234a7.118,7.118,0,0,0,1.248-.546,12.686,12.686,0,0,0,1.638-1.209,9.04,9.04,0,0,0,3-3.744,2.769,2.769,0,0,0-.234-2.535,3.564,3.564,0,0,0-2.145-1.17c-2.106-.39-3.705.819-4.914,2.418a15.664,15.664,0,0,0-3.042,6.4c-.273,1.131-.429,2.262-.624,3.432a4.752,4.752,0,0,0,.312,3.354c-.039-.39-.117-.741-.117-1.092,0-.2.078-.39.078-.546,0-.078-.078-.312-.078-.429a4.234,4.234,0,0,1,.156-.975c.039-.351,0-.7.039-1.053a3.353,3.353,0,0,1,.351-1.053c.117-.312.156-.585.273-.9.117-.273.2-.585.312-.9a3.692,3.692,0,0,1,.351-.663c-.117.351-.351.663-.429.975a8.952,8.952,0,0,0-.078,1.443c-.078.507-.234,1.014-.312,1.56-.078.507-.312.975-.39,1.482a4.9,4.9,0,0,0-.195,1.287,4.8,4.8,0,0,0,.078.78,1.436,1.436,0,0,0,.429.741,5.219,5.219,0,0,0,2.574,1.677,2.536,2.536,0,0,0,1.989-.2A10.331,10.331,0,0,0,50.193-.156c.663-.741,1.17-1.56,1.755-2.34.546-.7,1.209-1.365,1.755-2.067l2.106-2.73,1.209-1.6C57.213-9.126,57.33-9.321,57.174-9.633ZM47.5-9.2a.3.3,0,0,0,.039-.117A25.92,25.92,0,0,1,49.374-13.1l.7-.936a1.811,1.811,0,0,1,.7-.624c.585-.117.741.9.7,1.287l-.156.819c-.039.234.039.39,0,.585-.078.234-.273.351-.39.546l-.663.858A11.273,11.273,0,0,1,47-7.956C47.19-8.385,47.307-8.814,47.5-9.2Zm17.082-.39c-.078-.507-.624-.351-.9-.156-.351.234-2.3,2.808-2.145,3a.329.329,0,0,0,.273-.078,16.557,16.557,0,0,1-2.3,1.989c-.429.351-1.482,1.326-2.106,1.014-1.326-.663,1.365-5.343,1.248-5.382a16.945,16.945,0,0,0-1.287,2.652A20.139,20.139,0,0,1,59.2-10.491c-.039.117-.156.312-.078.312.078.039.663-.78.546-.858a.234.234,0,0,0-.156.039c.117-.117.312-.156.312-.39,0-.39-.9-.78-1.209-.9a2.155,2.155,0,0,0-2.067,0c-.78.468-.936,1.4-1.248,2.223a17.246,17.246,0,0,0-.663,3.042c.078-.039.078-.078.117-.156l-.117.7c-.039,0,.039-.195-.039-.195-.312,0-.234,1.4-.195,1.6a5.165,5.165,0,0,0,1.131,1.794,3.154,3.154,0,0,0,.819.936c.468.351.156,0,.468.156h-.078c-.039.234,1.443.624,1.755.585,1.365-.312,2.34-1.989,3.12-3.042.741-.936,1.365-1.872,2.028-2.847C64.038-8,64.74-8.853,64.584-9.594Zm-6.825-4.914c.078.117-.039.273.234.429.273.117.429-.039.663-.117a4.872,4.872,0,0,0,1.17-1.014c.117-.078-.117-.039-.117-.039.507-.468.078.078.546-.195.468-.312.546-.819.936-1.248a2.738,2.738,0,0,0-1.131.858,3.76,3.76,0,0,1-1.092,1.014,4.231,4.231,0,0,0,1.092-1.326,1.4,1.4,0,0,1,.39-.273c-.117-.117-.117-.234.039-.351.117-.2.351-.273.468-.468.195-.273.156-.624.39-.9.2-.156.468-.273.624-.429a1.522,1.522,0,0,0,.585-1.4,2.755,2.755,0,0,0-.975-1.326,2.13,2.13,0,0,0-1.755-.156c-.117.039-.585.156-.429.312.039.078.078.078.156.078-.351.273-.936.741-.117,1.053-.078.078,0,.429,0,.468a16.13,16.13,0,0,1-.936,2.418l.468-.7a9.07,9.07,0,0,1-.936,1.6c.234-.507-.234.078-.234.195-.429-.195-.312,1.014-.273,1.131A3.43,3.43,0,0,0,57.759-14.508Zm-.741,9.282v.039l-.078.234.078-.312C57.057-5.3,57.057-5.3,57.018-5.226Zm1.287-11.583a.965.965,0,0,0,.156-.234Zm-.39.741c0,.039,0,.039-.039.078a.038.038,0,0,0-.039-.039C57.876-16.029,57.876-16.029,57.915-16.068Zm34.593,5.889c-.819-.546-3.2,4.953-3.588,5.655C87.477-1.833,86,.858,84.357,3.432a23.932,23.932,0,0,1-2.73,3.783c-.39.429-1.053,1.287-1.716,1.326-2.106.117-.468-4.719-.936-5.5a9.722,9.722,0,0,0-.312,1.131,13.56,13.56,0,0,1,.195-1.4,4.558,4.558,0,0,0,.234-.78L79.326.78c.195-.858.39-1.716.624-2.574.429-1.794.936-3.588,1.443-5.382A12.194,12.194,0,0,1,82.017-9.2,16.408,16.408,0,0,1,83.5-11.076c1.014-1.365,1.95-2.808,2.925-4.212a38.747,38.747,0,0,0,2.3-3.861c.468-.975,1.326-1.716,1.911-2.73,1.4-2.574,3.588-6.318,2.5-9.36-.507-1.482-2.262-2.652-3.705-1.677a11.1,11.1,0,0,0-2.652,3.354c-.2.312-2.145,3.744-2.106,3.744.039.039.234-.312.39-.546-.507.936-.936,1.872-1.4,2.808l.273-.78A11.841,11.841,0,0,0,82.8-22.23c-.429.858-.78,1.716-1.17,2.574a40.7,40.7,0,0,0-2.067,5.5c-.507,1.911-1.17,3.744-1.755,5.616a24.3,24.3,0,0,1-.936,2.847c-.507.936-1.17,1.872-1.755,2.769a47.973,47.973,0,0,1-3.666,5.07c-.624.741-1.872,2.418-3,2.3-2.223-.273-.234-8.229-.351-8.229s-.195.351-.273.663a4,4,0,0,1,.195-.936c0,.195.156-.273.156-.312l.312-1.17c.234-.9.468-1.755.741-2.652.351-1.365,1.443-2.418,2.223-3.588a80.609,80.609,0,0,0,4.524-7.449c.195-.468.507-.624.819-1.014A19.358,19.358,0,0,0,78.156-22.5a38.486,38.486,0,0,0,2.223-4.6c.9-2.184,2.34-5.187.741-7.41a2.4,2.4,0,0,0-3.12-.9A7.749,7.749,0,0,0,76.167-33.5c-.234.312-.468.741-.741,1.17l-.078.156a2.144,2.144,0,0,1-.273.351v.039a.038.038,0,0,0-.039.039c-.429.7-.9,1.482-1.287,2.223a6,6,0,0,1,.312-.741,10.767,10.767,0,0,0-1.209,1.989c-.546.858-.975,1.794-1.443,2.691a34.55,34.55,0,0,0-2.067,4.992c-.546,1.677-1.209,3.315-1.794,4.992-.39,1.014-.741,2.028-1.053,3.081a7.182,7.182,0,0,0-.663,2.652h.078a9.107,9.107,0,0,0-.273.975c.039-.273.039-.546.078-.663a3.428,3.428,0,0,0-.195,1.287,40.918,40.918,0,0,0-1.6,8.112c-.156,2.3-.039,5.889,2.535,6.864,1.521.585,2.808-.195,3.939-1.209a35.967,35.967,0,0,0,5.811-7.254,2.575,2.575,0,0,0-.039.546c-.468,2.574-1.092,5.226-.78,7.917.195,1.911,1.014,4.056,3.159,4.368a2.712,2.712,0,0,0,1.872-.468c2.379-1.6,4.017-4.641,5.538-6.981C87.516,1.131,89-1.4,90.324-4.056c.468-.9.819-1.872,1.326-2.769C91.923-7.293,93.366-9.594,92.508-10.179ZM70.824-13.533a1.22,1.22,0,0,0,.195-.39c-.156.234-.156.156,0-.195l.234-.663.351-1.053c.273-.858.585-1.716.9-2.574.546-1.6,1.053-3.2,1.638-4.8.624-1.755,1.287-3.51,2.067-5.226a17.931,17.931,0,0,1,2.457-4.485c.429-.546.975-.936,1.17.078.312,1.482-.9,3.7-1.482,5.031-.741,1.677-1.56,3.354-2.379,4.992l-1.365,2.5a17.461,17.461,0,0,0-1.248,2.184,20.59,20.59,0,0,1,1.365-2.184l1.638-3.159a55.475,55.475,0,0,0,2.808-5.967A94.862,94.862,0,0,1,70.746-13.3l.078-.156Zm12.6-.156c.9-2.808,1.755-5.616,2.847-8.385.507-1.4,1.092-2.847,1.716-4.212a16.373,16.373,0,0,1,2.262-4.134c.2-.273.429-.624.78-.585,1.248.195-.234,3.471-.468,4.056-.663,1.56-1.443,3.042-2.223,4.563-.39.741-.78,1.482-1.209,2.223a9.028,9.028,0,0,0-1.092,1.872,7.341,7.341,0,0,1,.624-.9l.78-1.4,1.716-3.2a22.758,22.758,0,0,0,2.3-5.148,27.406,27.406,0,0,1-2.574,5.85c-1.209,2.3-2.5,4.563-3.822,6.786a8.065,8.065,0,0,1-.741,1.209l-.039.039-.039.039a.038.038,0,0,0,.039-.039l-.039.039Zm-3.042,6.24a52.824,52.824,0,0,1,1.989-6.084C81.159-9.126,79.6-4.8,78.7-.351,79.17-2.691,79.755-5.07,80.379-7.449ZM65.91-6.045c-.039.117-.078.117-.078.117a18.955,18.955,0,0,0-.624,3.666c-.078.468-.234.624-.273.936,0-.156.039-.351.039-.585l-.117.624a29.574,29.574,0,0,1,.507-3.666c.117-.858.312-1.677.468-1.677C65.91-6.63,65.949-6.084,65.91-6.045Zm6.162-18.174q.526-1.229,1.17-2.457c.351-.663,1.014-1.248,1.4-1.95-.78,1.56-1.794,3-2.613,4.524C71.994-24.024,71.955-23.985,72.072-24.219ZM78.2-32.526c.234-.351.663-1.092,1.131-1.092.039,0,.078.039.117.039-.7.156-1.872,2.067-2.457,3.2A13.06,13.06,0,0,1,78.2-32.526ZM78.078,3.705a1.689,1.689,0,0,0-.039.195,2.714,2.714,0,0,1,.078-.624C78.117,3.393,78.078,3.549,78.078,3.705ZM65.364-4.758a6.053,6.053,0,0,0-.156.819ZM76.245-1.6a.324.324,0,0,1,.078-.312ZM75.114-31.863l.312-.468-.078.156Zm9.4,16.419c-.039.117-.078.117-.117.195ZM65.052-2.808c0-.078.039-.234.039-.351C65.091-3.042,65.052-2.925,65.052-2.808Zm.117-.78v0Zm.039-.351c0,.078-.039.117-.039.156Zm-.078.663c0,.039-.039.078-.039.117C65.091-3.2,65.13-3.237,65.13-3.276ZM84.357-15.21l.039-.039A.038.038,0,0,0,84.357-15.21Zm22.62,5.577c0,.039,0,.039-.039,0v-.039c-.624-1.053-1.443.39-1.794.9-.663.9-1.287,1.755-1.989,2.574a21.285,21.285,0,0,0-1.677,2.145,1.209,1.209,0,0,1-.078.273c-.156.234-.39.429-.585.663-.351.351-.7.741-1.092,1.092-.585.546-3.861,3.627-4.29,1.638a7.671,7.671,0,0,1,.273-3.12c.117-.507.234-.975.312-1.482.078-.39-.039-.78.156-1.17.117-.234.156-.195.429-.273l.663-.234a7.118,7.118,0,0,0,1.248-.546,12.686,12.686,0,0,0,1.638-1.209,9.04,9.04,0,0,0,3-3.744,2.769,2.769,0,0,0-.234-2.535,3.564,3.564,0,0,0-2.145-1.17c-2.106-.39-3.705.819-4.914,2.418a15.664,15.664,0,0,0-3.042,6.4c-.273,1.131-.429,2.262-.624,3.432a4.752,4.752,0,0,0,.312,3.354c-.039-.39-.117-.741-.117-1.092,0-.2.078-.39.078-.546,0-.078-.078-.312-.078-.429a4.233,4.233,0,0,1,.156-.975c.039-.351,0-.7.039-1.053a3.353,3.353,0,0,1,.351-1.053c.117-.312.156-.585.273-.9.117-.273.195-.585.312-.9a3.692,3.692,0,0,1,.351-.663c-.117.351-.351.663-.429.975a8.953,8.953,0,0,0-.078,1.443c-.078.507-.234,1.014-.312,1.56-.078.507-.312.975-.39,1.482a4.9,4.9,0,0,0-.195,1.287,4.8,4.8,0,0,0,.078.78,1.436,1.436,0,0,0,.429.741A5.219,5.219,0,0,0,95.55,2.067a2.536,2.536,0,0,0,1.989-.2A10.331,10.331,0,0,0,100-.156c.663-.741,1.17-1.56,1.755-2.34.546-.7,1.209-1.365,1.755-2.067l2.106-2.73,1.209-1.6C107.016-9.126,107.133-9.321,106.977-9.633ZM97.305-9.2a.3.3,0,0,0,.039-.117A25.92,25.92,0,0,1,99.177-13.1l.7-.936a1.811,1.811,0,0,1,.7-.624c.585-.117.741.9.7,1.287l-.156.819c-.039.234.039.39,0,.585-.078.234-.273.351-.39.546l-.663.858A11.273,11.273,0,0,1,96.8-7.956C96.993-8.385,97.11-8.814,97.305-9.2Zm24.3.039c-.117-.546-.429-.624-.819-.468a20.815,20.815,0,0,0-2.184,1.6,54.241,54.241,0,0,1-4.914,2.691,1.534,1.534,0,0,0-.078-.234c.039.195,0,.273-.039.312-.39-1.677-.78-3.354-1.092-5.07.156.741.507,1.989.78,3.042-.351-1.638-.78-3.666-.741-3.666-.078.039-.078.117-.078.195a5.176,5.176,0,0,1-.117-1.56,6.228,6.228,0,0,1,.546-1.638c-.039.273-.117.624-.117.624.234.039.39-1.4.39-1.56-.039-.234-.546-.975-.546-.78-1.053-.975-3.12,1.17-3.432,2.106a4.7,4.7,0,0,0-.195,1.95,7.678,7.678,0,0,0,.429,1.872,7.09,7.09,0,0,1,0,1.287,21.9,21.9,0,0,0,.507,2.3,7.305,7.305,0,0,1,.546,2.3c-.078.546-1.248,1.014-1.755,1.326-.663.429-1.326.936-1.989,1.443a7.808,7.808,0,0,0-2.886,3.471c-.078.195-.351,1.053-.078,1.209a5.582,5.582,0,0,0,.195-.7c-.507,2.574,2.028,3.822,4.407,3.861a5.537,5.537,0,0,0,5.5-3.9,8.37,8.37,0,0,0,.468-3.237,12.9,12.9,0,0,0-.195-2.145c-.078-.624-.156-.585.273-.936a7.132,7.132,0,0,1,1.092-.546,29.918,29.918,0,0,0,3.51-2.262c.819-.585,2.769-1.6,2.613-2.847ZM105.846,4.251c-1.014-.312,0-1.911.351-2.418A9.463,9.463,0,0,1,108.42-.078l1.17-.78c.117-.078.858-.663.624-.585l.468-.273-.273.234a.978.978,0,0,0,.273-.156,8.57,8.57,0,0,1-.234,2.808A10.578,10.578,0,0,1,109.356,3.2l.195-.156A4.442,4.442,0,0,1,108.342,4.1c0-.039.351-.273.312-.312l-1.092.429A3.207,3.207,0,0,1,105.846,4.251Zm4.914,1.131a8.371,8.371,0,0,1-3.042.663,6.752,6.752,0,0,0,5.031-2.652A3.95,3.95,0,0,1,110.76,5.382Zm2.847-11.076a9.424,9.424,0,0,0-.234-1.092A10.018,10.018,0,0,0,113.607-5.694Zm.507,4.056a.292.292,0,0,1-.039-.195A1.689,1.689,0,0,0,114.114-1.638Z" transform="translate(-1119.948 2224.035)" fill="#343432"/>
    <path id="Path_50" data-name="Path 50" d="M-28.126-1.26q.014-1.162.07-3.612.028-2.212-.1-3.808a1.937,1.937,0,0,1,.224.056,1.492,1.492,0,0,1,.574.6,5.97,5.97,0,0,1,.7,2.814,6.166,6.166,0,0,1-.49,3A1.526,1.526,0,0,1-28.126-1.26Zm-1.218-7.8a37.967,37.967,0,0,1,.14,4.172q-.014.476-.035,1.337t-.035,1.561q-.014.7-.014,1.316V-.63a.553.553,0,0,0,.168.406.553.553,0,0,0,.406.168A.291.291,0,0,0-28.6-.07a2.187,2.187,0,0,0,1.484-.406A3.271,3.271,0,0,0-26.11-1.722a7.154,7.154,0,0,0,.6-3.528,7.285,7.285,0,0,0-.854-3.36A2.625,2.625,0,0,0-27.44-9.66a1.781,1.781,0,0,0-1.554.014.153.153,0,0,1-.056.028.148.148,0,0,0-.056.028A.542.542,0,0,0-29.344-9.058Zm8.064,9.03a11.519,11.519,0,0,0,1.9.014.545.545,0,0,0,.371-.238.569.569,0,0,0,.091-.434.545.545,0,0,0-.238-.371.544.544,0,0,0-.42-.091,4.384,4.384,0,0,1-1.078.014q0-.588.028-1.659t.028-1.393q.448.028.644.028a.553.553,0,0,0,.406-.168.553.553,0,0,0,.168-.406.553.553,0,0,0-.168-.406.553.553,0,0,0-.406-.168q-.182,0-.63-.028.028-1.862-.084-3.3.546.042,1.078.042a.553.553,0,0,0,.406-.168.553.553,0,0,0,.168-.406.553.553,0,0,0-.168-.406.553.553,0,0,0-.406-.168q-.252,0-1.652-.07a.54.54,0,0,0-.413.147.568.568,0,0,0-.189.4v.056a.834.834,0,0,0-.014.182,36.762,36.762,0,0,1,.126,4.13q0,.532-.035,1.946t-.035,2.2a.444.444,0,0,0-.028.126.54.54,0,0,0,.147.413A.568.568,0,0,0-21.28-.028Zm15.848-7.5a1.856,1.856,0,0,0-.049-1.225,1.553,1.553,0,0,0-.763-.833,1.5,1.5,0,0,0-1.113-.1A1.983,1.983,0,0,0-8.386-9a3.552,3.552,0,0,0-.952,2.52,3.165,3.165,0,0,0,.952,1.848,9.518,9.518,0,0,0,.7.686q.084.07.21.189l.231.217q.105.1.2.2a2,2,0,0,1,.63,1.022,1.008,1.008,0,0,1-.182.637,1.441,1.441,0,0,1-.56.511.709.709,0,0,1-.532.1.592.592,0,0,1-.35-.378A1.87,1.87,0,0,1-8.064-2.59a.534.534,0,0,0-.07-.427A.563.563,0,0,0-8.5-3.276a.534.534,0,0,0-.427.07.563.563,0,0,0-.259.364A3,3,0,0,0-9.1-1.008,1.628,1.628,0,0,0-7.98.028,1.705,1.705,0,0,0-6.636-.154a2.632,2.632,0,0,0,1.029-.938,1.967,1.967,0,0,0,.329-1.344A3.014,3.014,0,0,0-6.23-4.158q-.21-.224-.686-.644-.434-.406-.63-.616A2.019,2.019,0,0,1-8.19-6.594a2.43,2.43,0,0,1,.7-1.694q.392-.462.742-.266t.21.742a.551.551,0,0,0,.063.427.588.588,0,0,0,.343.273A.571.571,0,0,0-5.7-7.175.534.534,0,0,0-5.432-7.532Zm8.218.966V-6.58a5.454,5.454,0,0,0-.924-2.6A1.617,1.617,0,0,0,.126-9.87,2.227,2.227,0,0,0-1.239-8.722a4.57,4.57,0,0,0-.6,2.086,18.678,18.678,0,0,0,.2,4.018,6.369,6.369,0,0,0,.49,1.554A1.894,1.894,0,0,0-.14-.056,1.532,1.532,0,0,0,1.5-.35a3.265,3.265,0,0,0,.938-1.512,10.493,10.493,0,0,0,.35-4.648Zm-1.134.2a9.394,9.394,0,0,1-.308,4.13A2.3,2.3,0,0,1,.77-1.218a.5.5,0,0,1-.5.084.955.955,0,0,1-.392-.448A4.711,4.711,0,0,1-.5-2.828,18.553,18.553,0,0,1-.686-6.594a3.124,3.124,0,0,1,.4-1.477q.357-.6.707-.679a.542.542,0,0,1,.532.266,4.556,4.556,0,0,1,.686,2.072A.057.057,0,0,1,1.652-6.37ZM7.574-4.8q.056-2.632.056-3.934a1.506,1.506,0,0,1,1.043.6,2.069,2.069,0,0,1,.385,1.218,2.3,2.3,0,0,1-.371,1.323A1.844,1.844,0,0,1,7.574-4.8ZM6.5-9.17q0,1.316-.063,4.179T6.37-.616a.553.553,0,0,0,.168.406.553.553,0,0,0,.406.168A.553.553,0,0,0,7.35-.21a.553.553,0,0,0,.168-.406q0-.994.028-3.01A2.985,2.985,0,0,0,9.52-4.8a3.434,3.434,0,0,0,.686-2.128,3.2,3.2,0,0,0-.882-2.2,2.647,2.647,0,0,0-2.338-.756.526.526,0,0,0-.392.2.549.549,0,0,0-.126.427.057.057,0,0,1,.014.042A.057.057,0,0,0,6.5-9.17Zm9.982.084q0,2.38.014,3.57a10.8,10.8,0,0,0-1.358.084q0-2.2-.07-3.752a.568.568,0,0,0-.189-.4.54.54,0,0,0-.413-.147.568.568,0,0,0-.4.189.54.54,0,0,0-.147.413q.056,1.288.063,2.674t-.014,3.192q-.021,1.806-.021,2.674a.553.553,0,0,0,.168.406.553.553,0,0,0,.406.168.553.553,0,0,0,.406-.168.553.553,0,0,0,.168-.406q0-1.232.028-3.7,1.2-.1,1.372-.084.014,1.26.014,3.78a.553.553,0,0,0,.168.406.553.553,0,0,0,.406.168.553.553,0,0,0,.406-.168.553.553,0,0,0,.168-.406q0-1.428-.014-4.256t-.014-4.242a.553.553,0,0,0-.168-.406.553.553,0,0,0-.406-.168.553.553,0,0,0-.406.168A.553.553,0,0,0,16.478-9.086ZM21.294-9.2q.084,1.9.084,8.624a.553.553,0,0,0,.168.406A.553.553,0,0,0,21.952,0a.553.553,0,0,0,.406-.168.553.553,0,0,0,.168-.406q0-6.762-.084-8.68a.568.568,0,0,0-.189-.4A.54.54,0,0,0,21.84-9.8a.568.568,0,0,0-.4.189A.54.54,0,0,0,21.294-9.2Zm5.46,9.17a11.519,11.519,0,0,0,1.9.014.545.545,0,0,0,.371-.238.569.569,0,0,0,.091-.434.545.545,0,0,0-.238-.371.544.544,0,0,0-.42-.091,4.384,4.384,0,0,1-1.078.014q0-.588.028-1.659t.028-1.393q.448.028.644.028a.553.553,0,0,0,.406-.168.553.553,0,0,0,.168-.406.553.553,0,0,0-.168-.406.553.553,0,0,0-.406-.168q-.182,0-.63-.028.028-1.862-.084-3.3.546.042,1.078.042a.553.553,0,0,0,.406-.168.553.553,0,0,0,.168-.406.553.553,0,0,0-.168-.406.553.553,0,0,0-.406-.168q-.252,0-1.652-.07a.54.54,0,0,0-.413.147.568.568,0,0,0-.189.4v.056a.834.834,0,0,0-.014.182,36.762,36.762,0,0,1,.126,4.13q0,.532-.035,1.946t-.035,2.2a.444.444,0,0,0-.028.126.54.54,0,0,0,.147.413A.568.568,0,0,0,26.754-.028Z" transform="translate(-1114.948 2241.035)" fill="#343432"/>
  </g>
</svg>
